<?xml version="1.0" encoding="UTF-8" standalone="no"?>
<svg
   id="9af98f83-10c5-4067-bc84-20554b2827d8"
   data-name="Layer 1"
   width="341.591"
   height="267.28101"
   viewBox="0 0 341.59101 267.28101"
   version="1.1"
   sodipodi:docname="undraw_empty_xct9.svg"
   inkscape:version="1.1 (c68e22c387, 2021-05-23)"
   xmlns:inkscape="http://www.inkscape.org/namespaces/inkscape"
   xmlns:sodipodi="http://sodipodi.sourceforge.net/DTD/sodipodi-0.dtd"
   xmlns="http://www.w3.org/2000/svg"
   xmlns:svg="http://www.w3.org/2000/svg"
   xmlns:rdf="http://www.w3.org/1999/02/22-rdf-syntax-ns#"
   xmlns:cc="http://creativecommons.org/ns#"
   xmlns:dc="http://purl.org/dc/elements/1.1/">
  <sodipodi:namedview
     id="namedview419"
     pagecolor="#505050"
     bordercolor="#eeeeee"
     borderopacity="1"
     inkscape:pageshadow="0"
     inkscape:pageopacity="0"
     inkscape:pagecheckerboard="0"
     showgrid="false"
     inkscape:document-units="px"
     inkscape:zoom="1.0064183"
     inkscape:cx="505.25711"
     inkscape:cy="279.70477"
     inkscape:window-width="1920"
     inkscape:window-height="1013"
     inkscape:window-x="-9"
     inkscape:window-y="-9"
     inkscape:window-maximized="1"
     inkscape:current-layer="9af98f83-10c5-4067-bc84-20554b2827d8" />
  <defs
     id="defs222">
    <linearGradient
       id="07c62293-c0d3-4921-8e06-4e39241449cd"
       x1="318.22"
       y1="488.45001"
       x2="630.34998"
       y2="488.45001"
       gradientUnits="userSpaceOnUse"
       gradientTransform="matrix(0.33836197,0,0,0.33836197,-32.22493,-18.61783)">
      <stop
         offset="0"
         stop-color="gray"
         stop-opacity="0.25"
         id="stop215" />
      <stop
         offset="0.54"
         stop-color="gray"
         stop-opacity="0.12"
         id="stop217" />
      <stop
         offset="1"
         stop-color="gray"
         stop-opacity="0.1"
         id="stop219" />
    </linearGradient>
  </defs>
  <title
     id="title224">empty</title>
  <ellipse
     cx="119.8214"
     cy="250.81981"
     rx="59.585545"
     ry="11.287755"
     fill="#f9a826"
     opacity="0.1"
     id="ellipse226"
     style="stroke-width:0.338362" />
  <path
     d="M 198.46349,37.695752 C 176.56471,36.937821 155.70807,29.866056 135.79209,22.131102 115.8761,14.396147 96.149601,5.8288219 74.775276,1.7312585 61.027629,-0.90458127 45.303948,-1.2801631 34.229361,6.0825934 23.567575,13.188195 20.12305,25.41998 18.27221,36.778791 c -1.394051,8.547024 -2.212887,17.544068 1.603836,25.546329 2.652758,5.555903 7.355989,10.225299 10.611032,15.547732 11.324975,18.515167 3.31933,41.347828 -8.949675,59.426508 -5.752153,8.47936 -12.4348019,16.57974 -16.8774945,25.59709 -4.44269267,9.01734 -6.4965498,19.38475 -2.6087708,28.6085 3.8505592,9.13578 13.0303193,15.98422 22.9747773,20.80588 20.196826,9.79558 43.987056,12.59722 67.202071,14.18752 51.373494,3.51219 103.017684,1.99295 154.526524,0.46694 19.06332,-0.56168 38.20784,-1.13352 56.95986,-4.08065 10.41478,-1.63767 21.16454,-4.23629 28.72693,-10.50952 9.59594,-7.96166 11.97463,-21.442 5.54237,-31.42368 -10.78698,-16.74892 -40.60344,-20.90738 -48.15229,-38.87779 -4.14832,-9.8937 0.11166,-20.91077 6.14465,-30.08376 12.93896,-19.682516 34.62458,-36.949127 35.76486,-59.443431 0.785,-15.449608 -9.63993,-30.9229 -25.7595,-38.234903 -16.89441,-7.6638981 -40.32598,-6.6995665 -52.78446,5.985624 -12.84084,13.047237 -35.39605,18.071912 -54.73344,17.398572 z"
     fill="#f9a826"
     opacity="0.1"
     id="path228"
     style="stroke-width:0.338362" />
  <path
     d="m 181.06154,122.40129 -10.36403,-6.98718 v 0 l 5.22769,-7.78232 -27.37348,-2.18244 -9.83618,7.60638 -12.313,-6.90258 -10.26928,1.23502 -0.12181,-2.7069 a 76.395365,76.395365 0 0 0 -0.84929,-8.425212 c 0.044,-0.845905 0.0744,-1.817004 0.0711,-2.872693 0,-4.44946 -0.60229,-10.347109 -3.24828,-14.278875 l 0.60905,-5.474697 -4.94008,-5.836744 a 37.34501,37.34501 0 0 1 2.70689,-4.554352 c 0.16918,-0.24362 0.33837,-0.480474 0.52108,-0.71056 6.41196,-0.463556 11.47047,-5.735235 11.47047,-12.181031 0,-0.297758 0,-0.595517 -0.0338,-0.889892 0,-0.118427 -0.0237,-0.240237 -0.0372,-0.358664 0.62597,0.338362 1.2587,0.676724 1.89144,1.015086 0.11843,0.169181 0.25377,0.338362 0.40265,0.537996 v 0 l 0.0305,0.03722 0.18949,0.233469 0.0609,0.07106 c 0.0677,0.08121 0.13873,0.159031 0.20979,0.240237 l 0.0474,0.05414 c 0.17933,0.199634 0.36881,0.402651 0.57183,0.602285 a 0.60905154,0.60905154 0 0 1 0.0677,0.06429 l 0.25377,0.236854 0.0711,0.06429 c 0.21655,0.192866 0.44664,0.378965 0.67672,0.554913 l 0.0744,0.05414 0.29099,0.199634 0.0947,0.06091 c 0.11166,0.06767 0.22671,0.138728 0.33837,0.203017 l 0.0406,0.02369 c 0.13196,0.07106 0.2673,0.138729 0.40265,0.203018 l 0.0677,0.02707 q 0.17257,0.07444 0.33836,0.142112 l 0.1049,0.03722 c 0.11842,0.0406 0.23347,0.07782 0.35528,0.11166 l 0.0744,0.0203 c 0.14888,0.03722 0.29775,0.06767 0.45002,0.09136 h 0.0169 a 3.6813782,3.6813782 0 0 0 0.4331,0.04399 h 0.0981 a 3.7219817,3.7219817 0 0 0 0.38912,0 h 0.0846 a 4.0095893,4.0095893 0 0 0 0.48386,-0.05752 5.3393519,5.3393519 0 0 0 2.13168,-0.764698 1.8609908,1.8609908 0 0 0 0.4331,-0.402651 c 0.67673,-0.886508 -0.0677,-1.857607 -0.0677,-1.857607 v 0 c -0.26392,-0.629353 -1.97603,-1.072608 -1.97603,-1.072608 0,0 -5.4138,-2.260258 -5.4138,-4.060343 0,-1.800086 -1.35344,-11.138876 -15.32441,-13.27394 0,0 -9.0884,-0.510927 -11.643035,4.354718 l -0.05414,0.568448 c -0.751163,0.470323 -1.373749,1.414353 -2.114762,1.69181 a 3.4546757,3.4546757 0 0 0 -0.916961,0.338362 v -0.06429 0 a 0.87297388,0.87297388 0 0 0 -0.206401,0.267306 2.7068957,2.7068957 0 0 0 -0.28084,1.015086 3.8234902,3.8234902 0 0 1 -0.443254,1.228254 2.7305811,2.7305811 0 0 1 -0.203018,0.311293 v 0 l -0.05752,0.09136 a 2.4700424,2.4700424 0 0 0 1.150431,-0.186099 5.7284681,5.7284681 0 0 1 -0.338362,1.353448 1.1233617,1.1233617 0 0 0 1.042154,-0.622586 v -0.02707 l 0.04399,-0.0609 a 2.855775,2.855775 0 0 0 0.209784,-0.490625 l -0.03722,0.0406 c 0.06767,-0.219935 0.128578,-0.443254 0.203017,-0.659806 a 1.0353876,1.0353876 0 0 1 0.165798,-0.338362 0.81883596,0.81883596 0 0 1 0.700409,-0.233469 l -0.138728,2.933598 h 0.0609 a 4.0028221,4.0028221 0 0 1 -0.297759,0.615819 c -0.480474,0.778232 -1.353448,1.30946 -1.674892,2.162133 a 3.1806025,3.1806025 0 0 0 -0.155646,1.279008 c 0,0.253771 0.03045,0.510926 0.05075,0.764698 v -0.0203 c 0.04737,0.676724 0.0609,1.319612 -0.304526,1.864375 -0.250387,0.372198 -0.653038,0.653038 -0.791767,1.075991 a 1.0489221,1.0489221 0 0 0 -0.05075,0.365431 4.1043307,4.1043307 0 0 0 0.230086,1.086142 0.04737068,0.04737068 0 0 0 0,-0.0203 1.6512064,1.6512064 0 0 1 0.05752,0.798534 c -0.152263,0.676724 -0.974483,1.241789 -0.933879,1.88806 a 0.72747823,0.72747823 0 0 0 0.03722,0.250388 1.370366,1.370366 0 0 0 0.764698,0.676724 2.9775853,2.9775853 0 0 0 1.718878,0.378965 2.260258,2.260258 0 0 0 0.642888,-0.219935 c -0.236853,0.544763 -0.480474,1.082758 -0.727478,1.593685 -0.03722,0.08121 -0.07782,0.162413 -0.118427,0.24362 0,0 -2.091077,-1.397435 -3.278727,1.451573 a 6.3206016,6.3206016 0 0 0 -0.734246,1.908362 4.5408176,4.5408176 0 0 1 -0.250388,0.784999 5.0517442,5.0517442 0 0 1 -2.260257,2.030172 c -2.422672,1.109827 -12.2081,13.314544 -12.380665,16.474844 a 18.437344,18.437344 0 0 1 -0.622586,3.647543 21.70592,21.70592 0 0 0 -0.581983,8.624846 16.501913,16.501913 0 0 0 0.598901,2.750883 c 1.038771,3.156917 1.732413,9.04779 1.732413,9.04779 l 1.123362,10.2253 a 29.099129,29.099129 0 0 0 0.182716,4.22614 c -1.147047,1.30947 -5.752154,6.76724 -3.992672,8.25265 1.353448,1.17074 3.721982,0.97787 5.051745,0.73763 -1.119979,2.77119 -2.882844,7.58946 -3.116314,10.89864 -0.338362,4.8961 0.578599,11.3825 2.030172,13.87284 1.451573,2.49035 6.290149,8.87862 6.290149,8.87862 0,0 -0.226703,8.76357 1.502327,11.94756 1.729029,3.18399 2.426055,9.78881 2.426055,9.78881 0,0 1.613987,5.57621 0.805302,7.62668 -0.808685,2.05048 1.498943,3.75582 -0.923729,5.11942 -2.422671,1.3636 -5.522067,32.09701 -5.522067,32.09701 0,0 -1.248556,20.14269 0,21.16793 a 1.2688574,1.2688574 0 0 0 0.213168,0.12519 v 6.76724 c 0,0 -0.866206,1.42112 2.656142,1.70873 2.41252,0.19287 9.250816,0.62935 13.307774,0.88313 l 3.14338,0.19625 c 0,0 7.44396,1.48202 10.73284,0 3.28888,-1.48203 9.11886,-1.44819 8.25265,-5.36304 a 11.138876,11.138876 0 0 0 -0.46017,-1.56662 c -0.9508,-2.42944 -2.56479,-2.70689 -5.53899,-3.38362 -0.17256,-0.0372 -0.33836,-0.071 -0.49062,-0.0981 -3.13323,-0.54477 -4.16185,0.91357 -5.91795,-0.98464 -1.52602,-1.64105 -6.38489,-3.47836 -8.03948,-4.06034 0.0406,-0.12181 0.0914,-0.24024 0.13196,-0.36543 a 2.4768096,2.4768096 0 0 1 -1.25532,-0.61244 l 4.48329,0.28423 2.66968,0.1658 c 0,0 6.32737,1.26209 9.13577,0 2.8084,-1.26209 7.74849,-1.22826 7.01086,-4.55436 a 9.5451911,9.5451911 0 0 0 -0.38912,-1.33314 c -0.80868,-2.06401 -2.18243,-2.29071 -4.70999,-2.86254 -0.1455,-0.0305 -0.28085,-0.0609 -0.41619,-0.0846 -2.66291,-0.46355 -3.53588,0.77485 -5.02806,-0.83575 -1.27901,-1.37375 -5.31567,-2.9133 -6.76724,-3.43776 0,-0.75116 -1.01508,-1.82038 -1.65459,-2.89299 -0.75116,-1.25194 0.63612,-5.63373 0.63612,-5.63373 l 0.79177,-18.18019 a 3.5121972,3.5121972 0 0 1 0.94741,-0.27069 c 0,0 3.57987,-3.41745 2.77119,-7.05823 a 23.390963,23.390963 0 0 1 -0.25716,-3.3261 c 1.1775,-1.0929 2.79826,-2.70689 3.25843,-3.70168 0.75116,-1.62075 0,-9.47413 0,-9.47413 v -30.02963 l 5.989,0.60567 5.4341,0.5583 1.65459,0.16918 5.43409,0.54815 12.48894,1.26209 11.25392,-2.13168 4.86903,-0.92035 10.01213,-1.89482 V 124.1134 Z M 98.633178,41.224867 97.936152,41.150428 c 0.230087,0.01015 0.473707,0.05414 0.697026,0.07444 z"
     fill="url(#07c62293-c0d3-4921-8e06-4e39241449cd)"
     id="path230"
     style="fill:url(#07c62293-c0d3-4921-8e06-4e39241449cd);stroke-width:0.338362" />
  <path
     d="m 156.77053,138.30768 c -3.38362,4.84196 -15.54773,2.27718 -15.54773,2.27718 l -9.42677,-8.8211 -1.26885,-1.19441 2.12829,-4.52052 c 0,0 0.67673,0.1861 1.83731,0.51769 6.0939,1.76964 25.13353,7.67067 22.27775,11.74116 z"
     fill="#efb7b9"
     id="path232"
     style="stroke-width:0.338362" />
  <path
     d="m 134.48601,126.56652 c -0.41618,1.44819 -1.55646,3.61709 -2.68998,5.19724 l -1.26885,-1.19441 2.12829,-4.52052 c 0,0 0.6835,0.1861 1.83054,0.51769 z"
     opacity="0.1"
     id="path234"
     style="stroke-width:0.338362" />
  <path
     d="m 102.15553,75.588909 c 0,0 -8.689139,3.853943 -8.262803,13.317927 a 156.03224,156.03224 0 0 0 1.989568,18.190344 c 0,0 -1.7764,14.24165 5.620195,17.91288 7.39659,3.67123 14.24165,6.68941 14.24165,6.68941 0,0 11.57198,1.24518 13.01002,1.75949 1.43804,0.51431 5.93149,-7.34923 5.1025,-8.5741 -0.82899,-1.22487 -11.45017,-3.79303 -12.80362,-5.83674 -1.35345,-2.04371 -4.48329,-3.3058 -4.48329,-3.3058 0,0 -3.23136,-1.95573 -3.4513,-3.72198 -0.21993,-1.76625 0.63274,-3.08248 0.84929,-3.85732 0.21655,-0.77485 0.7647,-8.256036 0.7647,-8.256036 0,0 3.64754,-26.629087 -12.57691,-24.318075 z"
     fill="#dce6f2"
     id="path236"
     style="stroke-width:0.338362" />
  <path
     d="m 107.89076,106.70806 c 0,0 -11.920491,1.99633 -10.766676,6.16834 0,0 4.327646,-4.5036 10.766676,-6.16834 z"
     opacity="0.1"
     id="path238"
     style="stroke-width:0.338362" />
  <path
     d="m 107.98212,108.39649 c 0,0 -6.55407,5.3495 -5.27168,5.62357 1.28239,0.27407 5.27168,-5.62357 5.27168,-5.62357 z"
     opacity="0.1"
     id="path240"
     style="stroke-width:0.338362" />
  <path
     d="m 111.13227,110.26086 c 0,0 -1.7561,3.59679 -0.67672,3.35317 1.07937,-0.24362 0.67672,-3.35317 0.67672,-3.35317 z"
     opacity="0.1"
     id="path242"
     style="stroke-width:0.338362" />
  <path
     d="m 134.92588,126.94887 -0.72409,-0.2064 c 0.2064,-0.67672 0.26392,-1.22487 0.0947,-1.47864 -0.82899,-1.22487 -11.4434,-3.78965 -12.79347,-5.83674 -1.35006,-2.04709 -4.48329,-3.3058 -4.48329,-3.3058 0,0 -3.23136,-1.95573 -3.45129,-3.72198 -0.21994,-1.76625 0.63273,-3.08248 0.84928,-3.85733 0.21656,-0.77485 0.7647,-8.25941 0.7647,-8.25941 0,0 3.63739,-26.625708 -12.58706,-24.314696 0,0 -8.689139,3.857327 -8.266186,13.321311 a 155.59575,155.59575 0 0 0 1.992952,18.190335 c 0,0 -1.776401,14.24166 5.620194,17.91289 7.39659,3.67122 14.24165,6.68941 14.24165,6.68941 0,0 11.5686,1.24179 13.01002,1.75949 0.54476,0.19625 1.5294,-0.81546 2.49373,-2.20612 l 0.54815,0.51092 9.42676,8.81771 c 0,0 12.16411,2.56817 15.54773,-2.27379 2.85916,-4.07388 -16.17708,-9.97491 -22.28452,-11.74116 z"
     opacity="0.1"
     id="path244"
     style="stroke-width:0.338362" />
  <path
     d="m 97.154536,40.06767 a 2.8760767,2.8760767 0 0 0 -0.937262,0.362047 c -0.338362,0.28084 -0.338362,0.761314 -0.422953,1.180883 a 3.8843954,3.8843954 0 0 1 -0.676724,1.61737 2.4328226,2.4328226 0 0 0 1.126746,-0.186099 5.7995241,5.7995241 0 0 1 -0.338362,1.353448 1.0962928,1.0962928 0 0 0 1.015085,-0.619202 6.5168515,6.5168515 0 0 0 0.422953,-1.187651 0.97786609,0.97786609 0 0 1 0.162414,-0.338362 c 0.311293,-0.368814 0.889892,-0.203017 1.370366,-0.155646 a 2.2501071,2.2501071 0 0 0 2.057241,-0.988017 c 0.51093,-0.774849 0.54138,-2.75765 -0.67672,-2.967435 -1.272245,-0.209784 -2.064013,1.542931 -3.102784,1.928664 z"
     fill="#965d7b"
     id="path246"
     style="stroke-width:0.338362" />
  <g
     opacity="0.1"
     id="g254"
     transform="matrix(0.33836197,0,0,0.33836197,-0.00271945,0.0022288)">
    <path
       d="m 379.5,175.74 c 0.09,-0.49 0.15,-1 0.26,-1.49 v 0 c -0.95,0.83 -1,2.24 -1.25,3.49 a 11,11 0 0 1 -0.59,2.11 11.46,11.46 0 0 0 1.58,-4.11 z"
       transform="translate(-95.23,-55.03)"
       id="path248" />
    <path
       d="m 379.82,184 a 16.63,16.63 0 0 0 1,-4 7.16,7.16 0 0 1 -3.17,0.55 11.57,11.57 0 0 1 -1.15,2 7.12,7.12 0 0 0 3.32,-0.54 16.63,16.63 0 0 1 -1,4 3.25,3.25 0 0 0 3,-1.83 7.46,7.46 0 0 0 0.6,-1.43 3,3 0 0 1 -2.6,1.25 z"
       transform="translate(-95.23,-55.03)"
       id="path250" />
    <path
       d="m 388.6,177.2 c -1.42,-0.14 -3.14,-0.63 -4.06,0.46 a 3.09,3.09 0 0 0 -0.48,1 c -0.09,0.26 -0.17,0.53 -0.24,0.8 0.95,-0.75 2.49,-0.35 3.78,-0.22 a 6.68,6.68 0 0 0 6.08,-2.92 5.54,5.54 0 0 0 0.67,-1.57 6.66,6.66 0 0 1 -5.75,2.45 z"
       transform="translate(-95.23,-55.03)"
       id="path252" />
  </g>
  <polygon
     points="312.07,209 317.24,201 332.49,219.34 330.5,237.85 "
     fill="#dce6f2"
     id="polygon256"
     transform="matrix(0.33836197,0,0,0.33836197,-0.00271945,0.0022288)" />
  <polygon
     points="313.86,211.81 312.07,209 312.59,208.19 317.23,201 318.26,202.24 332.48,219.34 330.61,236.75 330.49,237.85 "
     opacity="0.1"
     id="polygon258"
     transform="matrix(0.33836197,0,0,0.33836197,-0.00271945,0.0022288)" />
  <path
     d="m 115.17569,59.611457 c -1.74594,0.500776 -3.41407,2.219654 -4.86564,4.307348 a 36.763028,36.763028 0 0 0 -2.62569,4.513748 c -0.47709,0.954181 -0.89666,1.871142 -1.24517,2.669676 l -0.24362,0.568448 c -0.58875,1.390668 -0.91696,2.321164 -0.91696,2.321164 0,0 -13.365301,-10.049351 -11.250538,-10.726075 0.71056,-0.226702 1.644439,-1.749331 2.568167,-3.667844 l 0.115043,-0.24362 c 0.585366,-1.231638 1.160582,-2.605387 1.671508,-3.89793 1.045539,-2.656142 1.82039,-4.96377 1.82039,-4.96377 0,0 20.30172,7.596226 14.97251,9.118855 z"
     fill="#efb7b9"
     id="path260"
     style="stroke-width:0.338362" />
  <path
     d="m 123.17119,49.927537 c 0,0 3.08586,5.582973 7.23079,4.821658 4.14494,-0.761314 2.43959,-2.997887 2.43959,-2.997887 z"
     fill="#444053"
     id="path262"
     style="stroke-width:0.338362" />
  <path
     d="m 117.19233,243.18298 c -2.73396,1.24855 -8.91584,0 -8.91584,0 l -2.60538,-0.16242 c -3.38362,-0.21655 -9.047802,-0.58198 -11.050905,-0.74439 -2.923447,-0.24024 -2.20612,-1.43804 -2.20612,-1.43804 v -7.23757 l 14.184135,-3.5934 c 0,0 5.60666,1.91851 7.14282,3.5934 1.45834,1.59707 2.31101,0.36882 4.91302,0.82899 0.12857,0.0237 0.26392,0.0508 0.40603,0.0846 2.47004,0.56507 3.80996,0.78839 4.60172,2.83548 a 9.5079713,9.5079713 0 0 1 0.38235,1.31961 c 0.73086,3.29564 -4.12125,3.27196 -6.85183,4.51375 z"
     fill="#a36468"
     id="path264"
     style="stroke-width:0.338362" />
  <path
     d="m 123.66181,237.34962 a 10.604264,10.604264 0 0 1 -1.59707,0.81883 c -1.86099,0.84929 -3.63062,1.88468 -5.51191,2.6866 -1.88129,0.80191 -3.90808,1.37374 -5.94502,1.22148 -1.06584,-0.0778 -2.15537,-0.33836 -3.17384,-0.0338 a 7.3289202,7.3289202 0 0 0 -1.76286,0.97786 c -3.38362,-0.21655 -9.047802,-0.58198 -11.050905,-0.74439 -2.923447,-0.24024 -2.20612,-1.43804 -2.20612,-1.43804 v -0.84591 c 0.104892,0 0.223319,-0.0305 0.358664,-0.0406 a 6.388274,6.388274 0 0 1 2.064008,0.30791 c 1.468491,0.39927 2.930214,0.79177 4.398705,1.18427 a 3.4749774,3.4749774 0 0 1 1.691808,-2.15875 5.3934898,5.3934898 0 0 1 2.7272,-0.62597 c 2.27718,0.0305 4.43254,1.10982 6.70633,1.2181 a 3.6949127,3.6949127 0 0 0 1.85761,-0.31129 c 0.31129,-0.15565 0.58537,-0.38235 0.88989,-0.55492 a 6.4965498,6.4965498 0 0 1 1.53278,-0.51769 33.75499,33.75499 0 0 0 4.38179,-1.41435 c 0.40603,-0.15903 0.87974,-0.44664 0.8256,-0.87975 -0.071,-0.57521 -0.97448,-0.64288 -1.21133,-1.17073 a 0.67672394,0.67672394 0 0 1 0.0271,-0.5989 c 0.12857,0.0237 0.26392,0.0508 0.40603,0.0846 2.45989,0.56507 3.79981,0.78839 4.59157,2.83548 z"
     opacity="0.1"
     id="path266"
     style="stroke-width:0.338362" />
  <path
     d="m 114.30272,259.01832 c -3.21444,1.46849 -10.48922,0 -10.48922,0 l -3.06218,-0.17934 c -3.965598,-0.25377 -10.644864,-0.67672 -13.003246,-0.87635 -3.441142,-0.28423 -2.595237,-1.69181 -2.595237,-1.69181 v -8.53011 l 16.691393,-4.22952 c 0,0 6.59806,2.25687 8.40491,4.22952 1.7155,1.87791 2.7069,0.4331 5.78261,0.97448 0.15226,0.0271 0.31129,0.0609 0.47709,0.0981 2.90653,0.67672 4.4833,0.93049 5.41379,3.33963 a 10.861419,10.861419 0 0 1 0.45002,1.55308 c 0.83914,3.87763 -4.85549,3.84718 -8.06993,5.31229 z"
     fill="#a36468"
     id="path268"
     style="stroke-width:0.338362" />
  <path
     d="m 121.91587,252.15295 a 12.597216,12.597216 0 0 1 -1.87791,0.96433 c -2.18921,0.99817 -4.27352,2.21627 -6.4864,3.1603 -2.21289,0.94403 -4.59834,1.61399 -6.99733,1.43804 -1.25194,-0.0914 -2.53433,-0.40603 -3.72198,-0.0406 a 8.6282302,8.6282302 0 0 0 -2.08093,1.16396 c -3.965598,-0.25377 -10.644864,-0.67672 -13.003246,-0.87635 -3.441142,-0.28423 -2.595237,-1.69181 -2.595237,-1.69181 v -0.99479 a 4.2295246,4.2295246 0 0 1 0.422953,-0.0474 7.4236616,7.4236616 0 0 1 2.429439,0.36205 l 5.173554,1.39405 a 4.0941798,4.0941798 0 0 1 2.006487,-2.5411 6.3138343,6.3138343 0 0 1 3.211055,-0.73763 c 2.679825,0.0372 5.214155,1.30608 7.890605,1.43466 a 4.368253,4.368253 0 0 0 2.17905,-0.36205 c 0.36881,-0.1861 0.67672,-0.4534 1.04892,-0.65304 a 7.3593728,7.3593728 0 0 1 1.80347,-0.60905 40.498544,40.498544 0 0 0 5.12957,-1.66474 c 0.47709,-0.18948 1.03538,-0.52785 0.97109,-1.03539 -0.0846,-0.67672 -1.14704,-0.75793 -1.42788,-1.38052 a 0.81545234,0.81545234 0 0 1 0.0338,-0.70379 c 0.15227,0.0271 0.3113,0.0609 0.47709,0.0981 2.90653,0.64965 4.4833,0.91357 5.4138,3.32271 z"
     opacity="0.1"
     id="path270"
     style="stroke-width:0.338362" />
  <path
     d="m 107.02794,200.48508 -0.90343,21.25928 c 0,0 -1.35345,4.34119 -0.6192,5.58297 0.73425,1.24179 1.97265,2.4802 1.52263,3.21444 -0.45002,0.73425 -5.86381,8.67222 -7.613146,5.62696 -1.749331,-3.04526 -3.474977,-16.24137 -3.474977,-16.24137 l 1.613986,-16.2989 z"
     fill="#444053"
     id="path272"
     style="stroke-width:0.338362" />
  <path
     d="m 110.94617,147.5179 2.51065,3.35655 v 29.19387 c 0,0 0.73424,7.78232 0,9.38954 -0.73425,1.60722 -4.45623,4.82166 -4.45623,4.82166 l -3.12985,-16.07219 0.67672,-17.00269 z"
     fill="#444053"
     id="path274"
     style="stroke-width:0.338362" />
  <path
     d="m 107.02794,200.48508 -0.90343,21.25928 c 0,0 -1.35345,4.34119 -0.6192,5.58297 0.73425,1.24179 1.97265,2.4802 1.52263,3.21444 -0.45002,0.73425 -5.86381,8.67222 -7.613146,5.62696 -1.749331,-3.04526 -3.474977,-16.24137 -3.474977,-16.24137 l 1.613986,-16.2989 z"
     opacity="0.1"
     id="path276"
     style="stroke-width:0.338362" />
  <path
     d="m 110.94617,147.5179 2.51065,3.35655 v 29.19387 c 0,0 0.73424,7.78232 0,9.38954 -0.73425,1.60722 -4.45623,4.82166 -4.45623,4.82166 l -3.12985,-16.07219 0.67672,-17.00269 z"
     opacity="0.1"
     id="path278"
     style="stroke-width:0.338362" />
  <path
     d="m 113.45682,135.06618 v 15.79135 l -2.81856,12.29269 c 0,0 -0.90343,29.66419 -0.11504,33.27113 0.78838,3.60694 -2.7069,6.99394 -2.7069,6.99394 0,0 -2.03017,0.22671 -2.03017,1.80347 0,1.57677 -3.38362,6.09052 -3.38362,6.09052 l 0.11166,8.79741 c 0,0 1.46849,16.46808 -0.78838,19.62499 -2.256878,3.15692 0.78838,3.61033 0.78838,3.61033 -2.818555,9.24743 -16.353034,7.1056 -17.574521,6.09051 -1.221487,-1.01508 0,-20.97844 0,-20.97844 0,0 3.024956,-30.45258 5.39349,-31.80603 2.368534,-1.35344 0.115043,-3.04525 0.903426,-5.07543 0.788384,-2.03017 -0.788383,-7.55562 -0.788383,-7.55562 0,0 -0.676724,-6.54392 -2.368534,-9.70084 -1.69181,-3.15691 -1.468491,-11.84266 -1.468491,-11.84266 0,0 -4.737067,-6.31722 -6.144653,-8.79742 -1.407586,-2.48019 -2.314396,-8.90907 -1.976034,-13.76118 0.230086,-3.27872 1.952349,-8.05301 3.045258,-10.80051 0.524461,-1.31623 0.903426,-2.1689 0.903426,-2.1689 l 0.321444,0.0846 18.481332,4.83858 z"
     fill="#444053"
     id="path280"
     style="stroke-width:0.338362" />
  <path
     d="m 115.17569,59.611457 c -1.74594,0.500776 -3.41407,2.219654 -4.86564,4.307348 h -0.37897 a 12.08629,12.08629 0 0 1 -10.489217,-6.06683 11.903574,11.903574 0 0 1 -1.062456,-2.419288 c 1.045538,-2.656142 1.820383,-4.963771 1.820383,-4.963771 0,0 20.30511,7.619912 14.9759,9.142541 z"
     opacity="0.1"
     id="path282"
     style="stroke-width:0.338362" />
  <path
     d="m 122.02752,51.152408 a 12.09644,12.09644 0 1 1 -22.629644,-5.928102 11.818984,11.818984 0 0 1 1.279004,-1.847456 12.241936,12.241936 0 0 1 2.78134,-2.442974 12.09644,12.09644 0 0 1 18.55239,9.332023 c 0.007,0.297759 0.0169,0.592134 0.0169,0.886509 z"
     fill="#efb7b9"
     id="path284"
     style="stroke-width:0.338362" />
  <path
     d="m 111.86313,80.109425 -0.0406,0.372198 -5.62696,-8.797411 c -0.58875,1.390668 -0.91696,2.321163 -0.91696,2.321163 0,0 -13.365301,-10.062885 -11.250538,-10.739609 0.71056,-0.226702 1.644439,-1.749331 2.568167,-3.667844 l 0.115043,-0.24362 c 0.98125,2.923447 6.682648,8.766958 9.054568,11.108423 0.27407,0.27069 0.50077,0.494009 0.67672,0.656422 l 0.36205,0.338362 0.18948,0.189483 c 0.86283,0.889892 4.5036,4.814891 4.86903,8.462433 z"
     opacity="0.1"
     id="path286"
     style="stroke-width:0.338362" />
  <path
     d="m 116.06897,109.95972 -0.61582,19.81786 -0.10827,3.52911 c 0,0 -7.29509,-0.67672 -14.10293,-1.42112 -5.481465,-0.5989 -10.648252,-1.24517 -11.443403,-1.62413 -1.015086,-0.47709 -3.190753,-0.84591 -4.906248,-1.07938 -1.326379,-0.17933 -2.368534,-0.27407 -2.368534,-0.27407 0,0 -0.389117,0.11504 -0.988017,0.22332 -1.306077,0.23685 -3.600172,0.42972 -4.936701,-0.73086 -1.708728,-1.48541 2.781335,-6.88229 3.901313,-8.17821 l 0.247004,-0.28084 -0.422952,-3.90808 -1.099676,-10.13395 c 0,0 -0.676724,-5.83674 -1.69181,-8.966588 a 16.539133,16.539133 0 0 1 -0.585367,-2.723814 21.81758,21.81758 0 0 1 0.568449,-8.547023 18.636977,18.636977 0 0 0 0.609051,-3.61709 C 78.29424,78.915007 87.852966,66.818567 90.2215,65.71889 a 5.0212916,5.0212916 0 0 0 2.422671,-2.415904 4.6152573,4.6152573 0 0 0 0.368815,-1.052306 c 1.015086,-4.398705 3.583253,-2.652758 3.583253,-2.652758 0.619202,3.441142 10.205001,12.549846 10.205001,12.549846 l 0.18948,0.189482 c 0.9508,0.974483 5.18709,5.549137 4.88595,9.453834 a 11.46032,11.46032 0 0 0 0.6395,4.276895 72.324871,72.324871 0 0 1 3.33287,18.948271 z"
     fill="#dce6f2"
     id="path288"
     style="stroke-width:0.338362" />
  <path
     d="m 102.48712,86.426643 c 0,0 -2.36853,5.752153 -4.144933,6.682649 -1.776401,0.930495 4.990843,1.962499 4.144933,-6.682649 z"
     opacity="0.1"
     id="path290"
     style="stroke-width:0.338362" />
  <path
     d="m 104.26352,97.169635 c 0,0 -5.41379,0.676724 -5.41379,1.69181 0,1.015086 5.41379,-1.69181 5.41379,-1.69181 z"
     opacity="0.1"
     id="path292"
     style="stroke-width:0.338362" />
  <path
     d="m 109.93108,103.76769 c 0,0 -7.86691,16.74892 -10.066264,17.25646 -2.199353,0.50755 10.066264,-17.25646 10.066264,-17.25646 z"
     opacity="0.1"
     id="path294"
     style="stroke-width:0.338362" />
  <path
     d="m 106.65236,72.997056 -6.5067,2.828706 -7.853385,-11.86297 a 4.6152573,4.6152573 0 0 0 0.368814,-1.052306 c 1.015086,-4.398706 3.583254,-2.652758 3.583254,-2.652758 0.619202,3.441141 10.204997,12.549846 10.204997,12.549846 z"
     opacity="0.1"
     id="path296"
     style="stroke-width:0.338362" />
  <path
     d="m 106.99072,72.320332 -6.5067,2.828706 -7.853383,-11.86297 a 4.6152573,4.6152573 0 0 0 0.368814,-1.052306 c 1.015086,-4.398706 3.583254,-2.652758 3.583254,-2.652758 0.619202,3.441141 10.204995,12.549846 10.204995,12.549846 z"
     fill="#dce6f2"
     id="path298"
     style="stroke-width:0.338362" />
  <path
     d="m 115.34488,133.30669 c 0,0 -7.29509,-0.67672 -14.10293,-1.42112 l 12.21487,3.19752 v 3.72199 c -0.53462,0.48385 -0.99817,0.73424 -1.29931,0.60566 -1.40759,-0.59213 -12.894979,-2.45312 -12.894979,-2.45312 0,0 -6.672498,-3.38362 -13.87284,-7.44396 a 5.5592871,5.5592871 0 0 1 -0.507543,-0.31806 7.9988769,7.9988769 0 0 1 -2.131681,-2.13507 c -1.329762,-1.92528 -1.979417,-4.3987 -2.260258,-6.82476 a 29.511931,29.511931 0 0 1 -0.175948,-4.18892 34.347123,34.347123 0 0 1 0.433103,-4.73368 155.67357,155.67357 0 0 1 -1.015086,-18.271551 c 0.08459,-9.474135 8.966593,-12.857754 8.966593,-12.857754 16.325969,-1.438039 11.26407,24.954195 11.26407,24.954195 0,0 -0.94403,7.44396 -1.201185,8.20528 -0.257155,0.76131 -1.180884,2.03017 -1.05569,3.80657 0.125194,1.7764 3.244894,3.90131 3.244894,3.90131 0,0 3.04526,1.42789 4.30058,3.54265 0.91358,1.55985 6.84844,3.67461 10.20161,5.18371 z"
     opacity="0.1"
     id="path300"
     style="stroke-width:0.338362" />
  <path
     d="m 120.81281,43.640772 a 3.8302575,3.8302575 0 0 1 -0.33837,1.61737 9.9985962,9.9985962 0 0 1 -0.60228,1.204569 5.5491363,5.5491363 0 0 1 -1.48203,1.840689 c -0.78161,0.558297 -1.76963,0.713944 -2.70689,0.940646 -0.93726,0.226703 -1.91175,0.58875 -2.44636,1.387284 a 4.8521106,4.8521106 0 0 0 -0.57183,1.657974 3.5663352,3.5663352 0 0 1 -0.67673,1.603836 1.3297625,1.3297625 0 0 1 -1.58353,0.378965 1.6004521,1.6004521 0 0 1 -0.61243,-0.788383 c -0.38574,-0.869591 -0.48386,-1.833922 -0.63951,-2.771185 -0.15564,-0.937263 -0.37558,-1.901594 -0.9508,-2.656141 -0.57521,-0.754548 -1.59368,-1.25194 -2.49711,-0.957565 a 2.4057536,2.4057536 0 0 0 -1.35344,1.312845 7.5251702,7.5251702 0 0 0 -0.51093,1.867758 q -0.62935,3.444525 -1.48541,6.848446 a 0.62935326,0.62935326 0 0 1 -0.11166,0.257155 0.48724123,0.48724123 0 0 1 -0.33836,0.142112 c -0.75793,0.101509 -1.48541,-0.42972 -2.250109,-0.372198 a 1.2925427,1.2925427 0 0 0 -0.23347,0.03722 A 12.089673,12.089673 0 0 1 100.64305,43.387 l 0.0609,-0.01692 a 3.647542,3.647542 0 0 0 1.35345,-0.852672 14.285642,14.285642 0 0 0 1.35345,-1.566616 l 0.27069,-0.338362 a 15.432689,15.432689 0 0 1 2.63922,-2.507262 2.7068957,2.7068957 0 0 1 0.90004,-0.487241 2.6662923,2.6662923 0 0 1 0.85268,-0.02707 21.50967,21.50967 0 0 0 3.52235,0.131961 22.599196,22.599196 0 0 1 2.47342,-0.250388 c 2.14183,0.0609 3.96899,1.573383 5.32243,3.231357 0.72748,0.849289 1.37714,1.827155 1.42113,2.936982 z"
     opacity="0.1"
     id="path302"
     style="stroke-width:0.338362" />
  <path
     d="m 97.817726,45.54575 c -0.470323,0.771465 -1.319612,1.295926 -1.637672,2.141831 -0.46694,1.228254 0.321444,2.75765 -0.402651,3.853943 -0.240237,0.368814 -0.63612,0.642888 -0.771465,1.06584 -0.230086,0.713944 0.399267,1.475258 0.236853,2.209504 -0.162414,0.734245 -1.130129,1.353448 -0.872974,2.070775 a 1.3534479,1.3534479 0 0 0 0.744397,0.676724 2.9099129,2.9099129 0 0 0 1.691809,0.375582 c 0.923729,-0.152263 1.610603,-1.059073 2.547866,-1.126746 0.761311,-0.05414 1.488791,0.473707 2.246721,0.375582 a 0.50754295,0.50754295 0 0 0 0.33836,-0.145496 0.58536621,0.58536621 0 0 0 0.11166,-0.257155 q 0.85268,-3.400537 1.4888,-6.848446 a 7.3762909,7.3762909 0 0 1 0.50754,-1.867758 2.4260553,2.4260553 0 0 1 1.35345,-1.312844 c 0.90342,-0.290992 1.91851,0.203017 2.49711,0.957564 0.5786,0.754547 0.79853,1.718879 0.95418,2.656141 0.15565,0.937263 0.25377,1.901595 0.63612,2.771185 a 1.6173702,1.6173702 0 0 0 0.61582,0.791767 c 0.50754,0.294375 1.19103,0.0609 1.58015,-0.378965 a 3.5291153,3.5291153 0 0 0 0.67672,-1.60722 4.8318089,4.8318089 0 0 1 0.57183,-1.65459 c 0.53462,-0.798534 1.51248,-1.160581 2.44636,-1.387284 0.93388,-0.226702 1.91851,-0.385733 2.7069,-0.94403 a 5.569438,5.569438 0 0 0 1.48202,-1.837305 c 0.50078,-0.872974 0.96772,-1.820388 0.92711,-2.825323 -0.044,-1.096292 -0.69364,-2.074159 -1.38728,-2.926831 -1.35345,-1.657973 -3.18399,-3.170451 -5.32582,-3.227973 a 21.046114,21.046114 0 0 0 -2.47342,0.250388 21.171308,21.171308 0 0 1 -3.52235,-0.135345 2.7678009,2.7678009 0 0 0 -0.85267,0.03045 2.5512492,2.5512492 0 0 0 -0.89666,0.487241 15.439457,15.439457 0 0 0 -2.64261,2.503879 19.391524,19.391524 0 0 1 -1.6309,1.894827 3.6712274,3.6712274 0 0 1 -1.35345,0.856055 c -0.33836,0.09474 -0.676726,0.02707 -0.998169,0.131962 -0.998168,0.314676 -1.130129,1.61737 -1.593685,2.382068 z"
     fill="#965d7b"
     id="path304"
     style="stroke-width:0.338362" />
  <path
     d="m 130.40198,54.745812 c -2.70689,0.497392 -4.95023,-1.69181 -6.19202,-3.288879 a 13.270556,13.270556 0 0 1 -1.03877,-1.529396 l 9.29142,1.752715 0.37558,0.07106 c 0,0 1.70873,2.236573 -2.43621,2.994504 z"
     opacity="0.1"
     id="path306"
     style="stroke-width:0.338362" />
  <g
     opacity="0.1"
     id="g314"
     transform="matrix(0.33836197,0,0,0.33836197,-0.00271945,0.0022288)">
    <path
       d="m 376.72,214.17 a 8.33,8.33 0 0 0 -0.58,-3.84 c 0,0.1 -0.09,0.2 -0.12,0.3 -0.43,1.34 0.15,2.73 0.52,4.12 a 3,3 0 0 0 0.18,-0.58 z"
       transform="translate(-95.23,-55.03)"
       id="path308" />
    <path
       d="m 379.1,197.8 a 22.22,22.22 0 0 0 0.08,4.15 22.28,22.28 0 0 0 -0.08,-4.15 z"
       transform="translate(-95.23,-55.03)"
       id="path310" />
    <path
       d="m 448.55,188.45 a 16.4,16.4 0 0 1 -4.38,5.44 c -2.31,1.65 -5.22,2.11 -8,2.78 -2.78,0.67 -5.65,1.74 -7.23,4.1 a 14.41,14.41 0 0 0 -1.69,4.9 10.47,10.47 0 0 1 -2,4.75 c -1.15,1.3 -3.17,2 -4.67,1.12 a 4.78,4.78 0 0 1 -1.82,-2.34 c -1.13,-2.57 -1.43,-5.41 -1.88,-8.19 -0.45,-2.78 -1.12,-5.62 -2.82,-7.85 -1.7,-2.23 -4.71,-3.7 -7.38,-2.83 a 7.14,7.14 0 0 0 -4,3.88 21.8,21.8 0 0 0 -1.5,5.52 q -1.87,10.19 -4.4,20.24 a 1.73,1.73 0 0 1 -0.33,0.76 1.5,1.5 0 0 1 -1,0.43 c -2.24,0.29 -4.39,-1.27 -6.64,-1.11 -2.77,0.2 -4.8,2.88 -7.53,3.32 a 8.45,8.45 0 0 1 -5,-1.11 5.35,5.35 0 0 1 -1.83,-1.3 2.7,2.7 0 0 0 -0.37,2.33 3.9,3.9 0 0 0 2.2,2 8.45,8.45 0 0 0 5,1.11 c 2.73,-0.44 4.76,-3.12 7.53,-3.32 2.25,-0.16 4.4,1.4 6.64,1.11 a 1.5,1.5 0 0 0 1,-0.43 1.73,1.73 0 0 0 0.33,-0.76 q 2.52,-10 4.4,-20.24 a 21.8,21.8 0 0 1 1.5,-5.52 7.14,7.14 0 0 1 4,-3.88 c 2.67,-0.87 5.67,0.6 7.38,2.83 1.71,2.23 2.36,5.08 2.82,7.85 0.46,2.77 0.75,5.62 1.88,8.19 a 4.78,4.78 0 0 0 1.82,2.34 c 1.5,0.87 3.52,0.18 4.67,-1.12 a 10.47,10.47 0 0 0 2,-4.75 14.41,14.41 0 0 1 1.69,-4.9 c 1.58,-2.36 4.47,-3.42 7.23,-4.1 2.76,-0.68 5.67,-1.13 8,-2.78 a 16.4,16.4 0 0 0 4.38,-5.44 c 1.48,-2.57 2.86,-5.37 2.74,-8.34 a 10.74,10.74 0 0 0 -0.12,-1.14 19.65,19.65 0 0 1 -2.62,6.45 z"
       transform="translate(-95.23,-55.03)"
       id="path312" />
  </g>
  <path
     d="m 120.48798,45.247991 a 11.954328,11.954328 0 0 1 1.50571,5.024675 c -3.01481,-1.691809 -5.85028,-3.549417 -7.28155,-4.195688 -2.49373,-1.126745 -11.81898,-0.957564 -15.324415,-0.852672 a 11.818984,11.818984 0 0 1 1.279005,-1.847456 12.241936,12.241936 0 0 1 2.79149,-2.442974 12.103208,12.103208 0 0 1 17.04668,4.307348 z"
     opacity="0.1"
     id="path316"
     style="stroke-width:0.338362" />
  <path
     d="m 131.24789,53.311157 c -1.62752,0.500776 -4.28366,-0.46694 -7.03793,-1.854224 a 13.270556,13.270556 0 0 1 -1.03877,-1.529396 l 9.29142,1.752715 c 0.61582,0.419569 0.77146,1.01847 -1.21472,1.630905 z"
     opacity="0.1"
     id="path318"
     style="stroke-width:0.338362" />
  <path
     d="m 110.6518,33.516982 c 0,0 -8.88201,-0.507543 -11.379118,4.314115 l -0.402651,4.273512 -0.676724,-0.07444 -0.135344,2.906529 c 0,0 13.575077,-0.592133 16.664327,0.801918 3.08924,1.394051 12.68857,8.418446 16.53575,7.234179 3.84717,-1.184267 -0.33836,-2.283943 -0.33836,-2.283943 0,0 -5.29537,-2.24334 -5.29537,-4.002822 0,-1.759483 -1.31284,-11.054286 -14.97251,-13.169048 z"
     fill="#444053"
     id="path320"
     style="stroke-width:0.338362" />
  <path
     d="m 93.520529,191.93806 c 0,0 5.667563,5.49838 8.120691,5.07543 0,0 -6.936424,-0.59214 -8.120691,-5.07543 z"
     opacity="0.1"
     id="path322"
     style="stroke-width:0.338362" />
  <path
     d="m 92.336262,194.48592 c 0,0 0.507543,2.82871 1.860991,2.55125 1.353448,-0.27746 -1.860991,-2.55125 -1.860991,-2.55125 z"
     opacity="0.1"
     id="path324"
     style="stroke-width:0.338362" />
  <path
     d="m 101.21826,241.76186 c 0,0 -8.046244,6.25969 -6.689413,6.42887 1.356832,0.16918 6.689413,-6.42887 6.689413,-6.42887 z"
     opacity="0.1"
     id="path326"
     style="stroke-width:0.338362" />
  <polygon
     points="334.8,403.87 330.96,347.33 407.96,334.8 407.96,407.7 "
     fill="#f9a826"
     id="polygon328"
     transform="matrix(0.33836197,0,0,0.33836197,-0.00271945,0.0022288)" />
  <polygon
     points="334.8,403.87 330.96,347.33 407.96,334.8 407.96,407.7 "
     opacity="0.05"
     id="polygon330"
     transform="matrix(0.33836197,0,0,0.33836197,-0.00271945,0.0022288)" />
  <polygon
     points="407.96,407.7 407.96,334.8 500.3,341.71 495.19,405.15 "
     fill="#f9a826"
     id="polygon332"
     transform="matrix(0.33836197,0,0,0.33836197,-0.00271945,0.0022288)" />
  <polygon
     points="407.96,407.7 407.96,334.8 500.3,341.71 495.19,405.15 "
     opacity="0.1"
     id="polygon334"
     transform="matrix(0.33836197,0,0,0.33836197,-0.00271945,0.0022288)" />
  <polygon
     points="515.39,318.94 436.35,312.55 407.96,334.8 500.3,341.71 "
     fill="#f9a826"
     id="polygon336"
     transform="matrix(0.33836197,0,0,0.33836197,-0.00271945,0.0022288)" />
  <polygon
     points="330.96,347.33 303.08,323.03 372.4,314.59 407.96,334.8 "
     fill="#f9a826"
     id="polygon338"
     transform="matrix(0.33836197,0,0,0.33836197,-0.00271945,0.0022288)" />
  <polygon
     points="373.08,448.1 368.3,447.6 352.62,445.99 330.96,443.77 330.96,347.33 407.95,352.57 424.84,353.73 424.84,453.4 388.77,449.7 "
     fill="#f9a826"
     id="polygon340"
     transform="matrix(0.33836197,0,0,0.33836197,-0.00271945,0.0022288)" />
  <polygon
     points="457.33,447.16 424.84,453.4 424.84,353.73 500.3,341.71 500.3,438.91 471.39,444.46 "
     fill="#f9a826"
     id="polygon342"
     transform="matrix(0.33836197,0,0,0.33836197,-0.00271945,0.0022288)" />
  <polygon
     points="457.33,447.16 424.84,453.4 424.84,353.73 500.3,341.71 500.3,438.91 471.39,444.46 "
     opacity="0.05"
     id="polygon344"
     transform="matrix(0.33836197,0,0,0.33836197,-0.00271945,0.0022288)" />
  <polygon
     points="411.02,377.01 303.08,368.31 330.96,347.33 424.84,353.73 "
     fill="#f9a826"
     id="polygon346"
     transform="matrix(0.33836197,0,0,0.33836197,-0.00271945,0.0022288)" />
  <polygon
     points="411.02,377.01 303.08,368.31 330.96,347.33 424.84,353.73 "
     fill="#ffffff"
     opacity="0.1"
     id="polygon348"
     transform="matrix(0.33836197,0,0,0.33836197,-0.00271945,0.0022288)" />
  <polygon
     points="530.23,362.17 500.3,341.71 424.84,353.73 449.4,375.73 "
     fill="#f9a826"
     id="polygon350"
     transform="matrix(0.33836197,0,0,0.33836197,-0.00271945,0.0022288)" />
  <polygon
     points="530.23,362.17 500.3,341.71 424.84,353.73 449.4,375.73 "
     fill="#ffffff"
     opacity="0.1"
     id="polygon352"
     transform="matrix(0.33836197,0,0,0.33836197,-0.00271945,0.0022288)" />
  <polygon
     points="470.5,423.07 471.39,444.46 457.33,447.16 457.33,426.39 "
     fill="#ffffff"
     opacity="0.1"
     id="polygon354"
     transform="matrix(0.33836197,0,0,0.33836197,-0.00271945,0.0022288)" />
  <polygon
     points="373.08,435.96 388.77,435.96 388.77,449.7 373.08,448.1 "
     fill="#ffffff"
     opacity="0.1"
     id="polygon356"
     transform="matrix(0.33836197,0,0,0.33836197,-0.00271945,0.0022288)" />
  <polygon
     points="352.62,440.29 368.3,440.29 368.3,447.6 352.62,445.99 "
     fill="#ffffff"
     opacity="0.1"
     id="polygon358"
     transform="matrix(0.33836197,0,0,0.33836197,-0.00271945,0.0022288)" />
  <path
     d="m 140.55284,145.04785 c -3.63739,4.65248 -15.64924,1.43804 -15.64924,1.43804 l -8.92599,-9.31172 -1.21133,-1.26209 2.36853,-4.3987 c 0,0 0.67672,0.22331 1.80685,0.61581 5.98224,2.09108 24.67336,9.00382 21.61118,12.91866 z"
     opacity="0.1"
     id="path360"
     style="stroke-width:0.338362" />
  <path
     d="m 140.21448,144.37113 c -3.63739,4.65248 -15.64924,1.43804 -15.64924,1.43804 l -8.92599,-9.31172 -1.21134,-1.26209 2.36854,-4.39871 c 0,0 0.67672,0.22332 1.80685,0.61582 5.98224,2.09108 24.67336,9.00381 21.61118,12.91866 z"
     fill="#efb7b9"
     id="path362"
     style="stroke-width:0.338362" />
  <path
     d="m 118.58977,131.45247 c -0.49401,1.42112 -1.74933,3.52573 -2.96405,5.04498 l -1.21134,-1.26209 2.36853,-4.39871 c 0,0 0.68011,0.22332 1.80686,0.61582 z"
     opacity="0.1"
     id="path364"
     style="stroke-width:0.338362" />
  <path
     d="m 89.037233,78.830417 c 0,0 -8.882002,3.383619 -8.966593,12.857754 a 155.67357,155.67357 0 0 0 1.015086,18.271549 c 0,0 -2.537714,14.12661 4.652477,18.18695 7.190192,4.06035 13.872841,7.44397 13.872841,7.44397 0,0 11.487386,1.86099 12.898356,2.45312 1.41097,0.59213 6.31384,-7.02101 5.55252,-8.28987 -0.76131,-1.26885 -11.22008,-4.3987 -12.46187,-6.51346 -1.24179,-2.11477 -4.30058,-3.53927 -4.30058,-3.53927 0,0 -3.119697,-2.1283 -3.244891,-3.9047 -0.125194,-1.7764 0.795151,-3.04526 1.055689,-3.80657 0.260539,-0.76131 1.204572,-8.20528 1.204572,-8.20528 0,0 5.04836,-26.40915 -11.277607,-24.954193 z"
     fill="#dce6f2"
     id="path366"
     style="stroke-width:0.338362" />
  <path
     d="m 93.097576,110.19657 c 0,0 -12.01185,1.35345 -11.081354,5.58297 0,0 4.564503,-4.26674 11.081354,-5.58297 z"
     opacity="0.1"
     id="path368"
     style="stroke-width:0.338362" />
  <path
     d="m 93.097576,111.88838 c 0,0 -6.817993,4.99084 -5.566054,5.3292 1.251939,0.33836 5.566054,-5.3292 5.566054,-5.3292 z"
     opacity="0.1"
     id="path370"
     style="stroke-width:0.338362" />
  <path
     d="m 96.142834,113.91855 c 0,0 -1.945581,3.49867 -0.845905,3.31595 1.099676,-0.18272 0.845905,-3.31595 0.845905,-3.31595 z"
     opacity="0.1"
     id="path372"
     style="stroke-width:0.338362" />
  <path
     d="m 221.20818,38.03073 c 0,0 -12.85775,-0.774848 -11.35542,8.245882 0,0 -0.30114,1.593685 1.14366,2.317779 0,0 0.0237,-0.676724 1.31961,-0.443254 a 5.9247181,5.9247181 0 0 0 1.39744,0.06767 2.8997621,2.8997621 0 0 0 1.71211,-0.707176 v 0 c 0,0 3.61709,-1.492176 5.02467,-7.406744 0,0 1.04216,-1.292542 1.01509,-1.624137 l -2.17228,0.930495 c 0,0 0.74101,1.566616 0.15564,2.86931 0,0 -0.0677,-2.811788 -0.48724,-2.747499 -0.0846,0 -1.12674,0.544762 -1.12674,0.544762 0,0 1.27562,2.727198 0.31129,4.713383 0,0 0.36543,-3.363318 -0.71056,-4.517133 l -1.5294,0.893276 c 0,0 1.49218,2.818555 0.48048,5.119417 0,0 0.26054,-3.529116 -0.80192,-4.902865 l -1.38729,1.079374 c 0,0 1.40421,2.781336 0.54815,4.689697 0,0 -0.11166,-4.107714 -0.84929,-4.419007 0,0 -1.21133,1.069224 -1.39405,1.509094 0,0 0.95757,2.030172 0.36205,3.082478 0,0 -0.36543,-2.737349 -0.67673,-2.750883 0,0 -1.20795,1.81362 -1.33314,3.045258 a 6.5845239,6.5845239 0 0 1 1.03877,-3.227974 3.6238567,3.6238567 0 0 0 -1.84746,0.957565 c 0,0 0.1861,-1.282392 2.14522,-1.394051 0,0 1.01508,-1.377134 1.26547,-1.461724 0,0 -1.94896,-0.162414 -3.12985,0.362047 0,0 1.03878,-1.207952 3.48852,-0.676724 l 1.35344,-1.116594 c 0,0 -2.56478,-0.338362 -3.65431,0.03722 0,0 1.25194,-1.069224 4.02313,-0.290992 l 1.48879,-0.889892 c 0,0 -2.18582,-0.473707 -3.48851,-0.301142 0,0 1.37375,-0.741013 3.925,0.0609 l 1.06584,-0.47709 c 0,0 -1.60384,-0.314677 -2.07078,-0.365431 -0.46694,-0.05075 -0.49401,-0.179332 -0.49401,-0.179332 a 5.5356018,5.5356018 0 0 1 3.00804,0.338362 c 0,0 2.28395,-0.82222 2.23657,-0.964332 z"
     fill="#f9a826"
     id="path374"
     style="stroke-width:0.338362" />
  <path
     d="m 260.27546,83.147915 c 0,0 -12.85776,-0.774849 -11.35543,8.245882 0,0 -0.30114,1.593684 1.14366,2.317779 0,0 0.0237,-0.676724 1.323,-0.443254 a 5.9247181,5.9247181 0 0 0 1.39743,0.06767 2.8963785,2.8963785 0 0 0 1.69181,-0.703793 v 0 c 0,0 3.62048,-1.49556 5.02806,-7.410127 0,0 1.03877,-1.289159 0.99817,-1.620754 l -2.17228,0.927112 c 0,0 0.74101,1.566616 0.15903,2.86931 0,0 -0.0711,-2.811788 -0.48724,-2.747499 -0.0846,0 -1.13013,0.544762 -1.13013,0.544762 0,0 1.279,2.730581 0.31467,4.713383 0,0 0.36543,-3.363318 -0.71394,-4.517133 l -1.51248,0.883125 c 0,0 1.49218,2.818555 0.48048,5.119417 0,0 0.26053,-3.529116 -0.80192,-4.902865 l -1.3839,1.082758 c 0,0 1.40082,2.777952 0.54814,4.686313 0,0 -0.11166,-4.107714 -0.84929,-4.419007 0,0 -1.21133,1.069224 -1.39743,1.509094 0,0 0.96095,2.030172 0.36543,3.082478 0,0 -0.36543,-2.737349 -0.67672,-2.750883 0,0 -1.20796,1.81362 -1.33315,3.045258 a 6.6048256,6.6048256 0 0 1 1.04216,-3.227973 3.6407748,3.6407748 0 0 0 -1.85084,0.957564 c 0,0 0.18948,-1.282392 2.14859,-1.394051 0,0 0.99817,-1.377134 1.26548,-1.461724 0,0 -1.94897,-0.162414 -3.12985,0.362047 0,0 1.03877,-1.207952 3.48513,-0.659806 l 1.35345,-1.116594 c 0,0 -2.56817,-0.338362 -3.65431,0.03722 0,0 1.25194,-1.069224 4.02312,-0.290992 l 1.48879,-0.889892 c 0,0 -2.1892,-0.470323 -3.49189,-0.301142 0,0 1.37713,-0.741012 3.92838,0.0609 l 1.06584,-0.47709 c 0,0 -1.60384,-0.314677 -2.07416,-0.365431 -0.47032,-0.05075 -0.49401,-0.179332 -0.49401,-0.179332 a 5.5457527,5.5457527 0 0 1 3.01142,0.338362 c 0,0 2.28733,-0.828987 2.24673,-0.971099 z"
     fill="#f9a826"
     opacity="0.1"
     id="path376"
     style="stroke-width:0.338362" />
  <path
     d="m 182.1646,75.138888 c 0,0 2.96066,-12.549846 -6.18864,-12.593833 0,0 -1.51925,-0.568448 -2.47681,0.730862 0,0 0.65304,0.138728 0.20978,1.377133 a 6.022843,6.022843 0 0 0 -0.30452,1.353448 2.9065293,2.9065293 0 0 0 0.40265,1.803469 v 0 c 0,0 0.85605,3.823491 6.42887,6.219093 0,0 1.0963,1.245172 1.42789,1.258707 l -0.54138,-2.297478 c 0,0 -1.67151,0.463556 -2.85577,-0.338362 0,0 2.78472,0.409418 2.7881,0 0,-0.08459 -0.33836,-1.204568 -0.33836,-1.204568 0,0 -2.90653,0.791767 -4.69985,-0.497393 0,0 3.25166,0.933879 4.57465,0.07106 l -0.60905,-1.66474 c 0,0 -3.04526,0.9914 -5.12956,-0.399268 0,0 3.43437,0.85944 4.97053,0.04737 l -0.82898,-1.549698 c 0,0 -2.97759,0.90681 -4.71339,-0.260538 0,0 4.06035,0.588749 4.50022,-0.08121 0,0 -0.84591,-1.377134 -1.24856,-1.634289 0,0 -2.15198,0.602285 -3.09939,-0.165797 0,0 2.75765,0.104892 2.82194,-0.186099 0,0 -1.58016,-1.498944 -2.78472,-1.837306 a 6.6318946,6.6318946 0 0 1 3.00803,1.576767 3.6509256,3.6509256 0 0 0 -0.62935,-1.986185 c 0,0 1.23164,0.406035 1.01509,2.368534 0,0 1.18426,1.218103 1.22148,1.49556 0,0 0.49063,-1.891443 0.17595,-3.146766 0,0 1.01509,1.231637 0.0575,3.549417 l 0.86621,1.539547 c 0,0 0.785,-2.470043 0.58537,-3.606939 0,0 0.84252,1.414353 -0.39927,4.012973 l 0.62597,1.620754 c 0,0 0.83575,-2.077542 0.88989,-3.38362 0,0 0.49739,1.482026 -0.73086,3.86071 l 0.29099,1.130129 c 0,0 0.58198,-1.526012 0.71056,-1.979417 0.12858,-0.453405 0.26054,-0.456789 0.26054,-0.456789 a 5.542369,5.542369 0 0 1 -0.84252,2.909913 c 0,0 0.44325,2.361767 0.58875,2.344849 z"
     fill="#f9a826"
     opacity="0.1"
     id="path378"
     style="stroke-width:0.338362" />
  <path
     d="m 154.00611,79.415783 c 0,0 -10.3268,-7.724804 -14.01833,0.642888 0,0 -1.12675,1.167348 -0.31806,2.564783 0,0 0.38573,-0.544762 1.35345,0.358664 a 5.9247181,5.9247181 0 0 0 1.13012,0.825603 2.9031457,2.9031457 0 0 0 1.81701,0.338362 v 0 c 0,0 3.84379,0.741013 8.26956,-3.424223 0,0 1.58016,-0.507543 1.72903,-0.805301 l -2.33131,-0.409418 c 0,0 -0.24362,1.715495 -1.44481,2.483576 0,0 1.48541,-2.388835 1.09968,-2.5614 -0.0778,-0.03722 -1.24179,-0.169181 -1.24179,-0.169181 0,0 -0.4331,2.984353 -2.32793,4.111098 0,0 2.15537,-2.60877 1.88806,-4.165236 l -1.76963,-0.09474 c 0,0 -0.30114,3.177219 -2.41252,4.544201 0,0 2.15536,-2.80502 2.03017,-4.537434 l -1.75271,0.142112 c 0,0 -0.35528,3.089245 -2.11815,4.212607 0,0 2.16213,-3.491896 1.71888,-4.155085 0,0 -1.60045,0.226702 -1.99634,0.490625 0,0 -0.30791,2.212887 -1.39067,2.774568 0,0 1.20119,-2.486961 0.95757,-2.659525 0,0 -2.00649,0.849288 -2.79487,1.817004 a 6.6082092,6.6082092 0 0 1 2.64599,-2.124914 3.6441584,3.6441584 0 0 0 -2.07078,-0.216551 c 0,0 0.85944,-0.967715 2.55802,0.01692 0,0 1.5903,-0.598901 1.86099,-0.524461 0,0 -1.53955,-1.207952 -2.81517,-1.417737 0,0 1.53616,-0.43987 3.27873,1.353448 l 1.7561,-0.179332 c 0,0 -1.95235,-1.69181 -3.07233,-1.976034 0,0 1.63429,-0.206401 3.51896,1.965883 l 1.73242,0.07782 c 0,0 -1.56662,-1.597069 -2.7475,-2.172284 0,0 1.55308,0.135345 3.24489,2.209503 l 1.15381,0.186099 c 0,0 -1.16734,-1.143663 -1.53278,-1.441421 -0.36543,-0.297759 -0.31467,-0.422953 -0.31467,-0.422953 a 5.5592871,5.5592871 0 0 1 2.33131,1.935431 c 0,0 2.35162,0.544762 2.3956,0.406034 z"
     fill="#f9a826"
     opacity="0.1"
     id="path380"
     style="stroke-width:0.338362" />
  <path
     d="m 188.38707,7.6458257 c 0,0 -10.3268,-7.72818739 -14.01833,0.6428877 0,0 -1.12675,1.1673488 -0.31806,2.5647836 0,0 0.38573,-0.544763 1.35345,0.358664 a 6.0194594,6.0194594 0 0 0 1.13351,0.822219 2.8997621,2.8997621 0 0 0 1.817,0.338362 v 0 c 0,0 3.84379,0.741013 8.26957,-3.4276064 0,0 1.58015,-0.5041593 1.72564,-0.8053015 l -2.33131,-0.4026507 c 0,0 -0.24024,1.7154952 -1.44481,2.4835766 0,0 1.4888,-2.3888352 1.10306,-2.5613998 -0.0778,-0.03722 -1.24178,-0.169181 -1.24178,-0.169181 0,0 -0.44664,2.9911198 -2.34147,4.1110978 0,0 2.15198,-2.6087707 1.88806,-4.1652357 l -1.76963,-0.094741 c 0,0 -0.30453,3.1772187 -2.41252,4.5408177 0,0 2.15536,-2.8050208 2.03017,-4.5374341 l -1.74933,0.1421121 c 0,0 -0.35867,3.092628 -2.12153,4.21599 0,0 2.16551,-3.4918954 1.72226,-4.1550849 0,0 -1.60045,0.2267025 -1.99634,0.4906249 0,0 -0.3079,2.212887 -1.39066,2.774568 0,0 1.20118,-2.4869604 0.95756,-2.6629086 0,0 -2.00648,0.8526722 -2.79487,1.8203874 A 6.5777567,6.5777567 0 0 1 177.1027,7.8454596 3.6204731,3.6204731 0 0 0 175.02854,7.628908 c 0,0 0.86283,-0.9677153 2.5614,0.016918 0,0 1.5903,-0.6022843 1.86099,-0.5244611 0,0 -1.53954,-1.2079522 -2.81517,-1.4211202 0,0 1.53278,-0.436487 3.27535,1.3534478 l 1.7561,-0.1793318 c 0,0 -1.94897,-1.6918099 -3.07233,-1.9794175 0,0 1.63429,-0.2030172 3.52235,1.9692666 l 1.73241,0.07444 c 0,0 -1.56662,-1.5970685 -2.75088,-2.1689003 0,0 1.55646,0.1353448 3.24827,2.2095037 l 1.15043,0.1860991 c 0,0 -1.17073,-1.130129 -1.53616,-1.4211203 -0.36543,-0.2909913 -0.31468,-0.4195688 -0.31468,-0.4195688 a 5.5491363,5.5491363 0 0 1 2.33132,1.9354304 c 0,0 2.35161,0.5143102 2.40913,0.3857321 z"
     fill="#f9a826"
     opacity="0.1"
     id="path382"
     style="stroke-width:0.338362" />
  <path
     d="m 227.84685,17.434637 c 0,0 -4.12802,-12.2182503 -11.91373,-7.416894 0,0 -1.5903,0.338362 -1.71549,1.932047 0,0 0.62597,-0.230086 0.90342,1.055689 a 6.0905154,6.0905154 0 0 0 0.46356,1.322996 2.9302146,2.9302146 0 0 0 1.29931,1.316228 v 0 c 0,0 2.7475,2.791486 8.75681,1.867758 0,0 1.58691,0.480474 1.87791,0.314676 l -1.69181,-1.661357 c 0,0 -1.17074,1.275625 -2.59862,1.22487 0,0 2.5817,-1.123361 2.36853,-1.485409 -0.044,-0.07106 -0.92711,-0.839137 -0.92711,-0.839137 0,0 -2.05048,2.209503 -4.24983,2.064008 0,0 3.25166,-0.927112 3.91485,-2.368534 l -1.40082,-1.079375 c 0,0 -2.05047,2.442974 -4.5645,2.368534 0,0 3.38362,-1.086142 4.23967,-2.588469 l -1.52263,-0.876358 c 0,0 -2.03017,2.344849 -4.13478,2.270409 0,0 3.76259,-1.647823 3.77274,-2.446357 0,0 -1.44481,-0.720711 -1.9219,-0.727478 0,0 -1.50909,1.647823 -2.70689,1.498943 0,0 2.3956,-1.370365 2.29409,-1.651206 0,0 -2.13168,-0.436487 -3.33287,-0.08459 a 6.5946748,6.5946748 0 0 1 3.38362,-0.253772 3.6509256,3.6509256 0 0 0 -1.58691,-1.3534478 c 0,0 1.2587,-0.3079094 2.10122,1.4651078 0,0 1.65121,0.409418 1.82716,0.622586 0,0 -0.58198,-1.864375 -1.51248,-2.7644177 0,0 1.51248,0.5109266 1.92528,2.9843527 l 1.5497,0.845905 c 0,0 -0.63951,-2.507262 -1.41097,-3.3836199 0,0 1.46511,0.7579309 1.78317,3.6170899 l 1.38728,1.045538 c 0,0 -0.38573,-2.20612 -1.03539,-3.349783 0,0 1.20457,0.994784 1.42112,3.66446 l 0.84252,0.805301 c 0,0 -0.31129,-1.603836 -0.43987,-2.057241 -0.12857,-0.453405 -0.0237,-0.483857 -0.0237,-0.483857 a 5.5795889,5.5795889 0 0 1 0.82222,2.91668 c 0,0 1.63767,1.756099 1.7561,1.668124 z"
     fill="#f9a826"
     opacity="0.1"
     id="path384"
     style="stroke-width:0.338362" />
  <path
     d="m 200.90647,18.036922 c 0,0 -12.82392,-1.427888 -11.76485,7.670666 0,0 -0.38235,1.576766 1.01509,2.368533 0,0 0.0575,-0.676724 1.35344,-0.372198 a 6.2258602,6.2258602 0 0 0 1.39406,0.138729 2.9099129,2.9099129 0 0 0 1.74256,-0.619203 v 0 c 0,0 3.69153,-1.309461 5.41379,-7.146205 0,0 1.10306,-1.235021 1.07938,-1.569999 l -2.21627,0.818836 c 0,0 0.67672,1.600452 0,2.872693 0,0 0.0711,-2.811788 -0.33837,-2.767801 -0.0846,0 -1.15381,0.487241 -1.15381,0.487241 0,0 1.1369,2.791487 0.0744,4.737068 0,0 0.53461,-3.343016 -0.48386,-4.547585 l -1.57338,0.812069 c 0,0 1.35345,2.892995 0.21993,5.139718 0,0 0.43987,-3.512197 -0.55153,-4.936701 l -1.43803,1.015086 c 0,0 1.2587,2.845624 0.3079,4.709998 0,0 0.0981,-4.107714 -0.62258,-4.456227 0,0 -1.26548,1.015086 -1.47188,1.434655 0,0 0.85606,2.064008 0.20979,3.096012 0,0 -0.2267,-2.750883 -0.52446,-2.777952 0,0 -1.29931,1.749332 -1.4888,2.984353 a 6.5879075,6.5879075 0 0 1 1.20457,-3.173835 3.6407748,3.6407748 0 0 0 -1.89482,0.862823 c 0,0 0.25038,-1.268858 2.21288,-1.282392 0,0 1.06584,-1.322996 1.35345,-1.394052 0,0 -1.93881,-0.260538 -3.14676,0.203018 0,0 1.09967,-1.157198 3.51558,-0.483858 l 1.4245,-1.045539 c 0,0 -2.57493,-0.521077 -3.66446,-0.182715 0,0 1.30608,-1.015086 4.03327,-0.08459 l 1.53278,-0.815453 c 0,0 -2.16213,-0.581982 -3.47159,-0.47709 0,0 1.41097,-0.676724 3.91823,0.260539 l 1.08953,-0.422953 c 0,0 -1.58692,-0.395883 -2.05386,-0.470323 -0.46694,-0.07444 -0.48386,-0.203017 -0.48386,-0.203017 a 5.5660544,5.5660544 0 0 1 2.99112,0.487241 c 0,0 2.28056,-0.727478 2.25688,-0.86959 z"
     fill="#f9a826"
     opacity="0.1"
     id="path386"
     style="stroke-width:0.338362" />
  <path
     d="m 313.1073,117.57286 c 0,0 -12.81716,-1.42789 -11.75808,7.66052 0,0 -0.38235,1.57676 1.01508,2.36853 0,0 0.0575,-0.67672 1.35345,-0.37558 a 5.8536621,5.8536621 0 0 0 1.39405,0.13873 2.8862276,2.8862276 0 0 0 1.74257,-0.6192 v 0 c 0,0 3.69153,-1.30947 5.39687,-7.14283 0,0 1.10306,-1.2384 1.07937,-1.57 l -2.21627,0.81546 c 0,0 0.67673,1.60383 0,2.87607 0,0 0.0711,-2.81517 -0.33836,-2.7678 -0.0846,0 -1.15381,0.48386 -1.15381,0.48386 0,0 1.13689,2.79149 0.0744,4.73707 0,0 0.53461,-3.33963 -0.48386,-4.54759 l -1.57338,0.81546 c 0,0 1.35344,2.89299 0.22332,5.13971 0,0 0.43648,-3.51219 -0.55492,-4.94008 l -1.43804,1.01508 c 0,0 1.25871,2.84563 0.30791,4.70662 0,0 0.0981,-4.10771 -0.62258,-4.45284 0,0 -1.26209,1.01508 -1.47188,1.43465 0,0 0.85944,2.06401 0.20979,3.09601 0,0 -0.22671,-2.75088 -0.52446,-2.77795 0,0 -1.29931,1.74933 -1.4888,2.98435 a 6.5879075,6.5879075 0 0 1 1.20457,-3.17383 3.6103222,3.6103222 0 0 0 -1.89483,0.86282 c 0,0 0.25039,-1.27224 2.21289,-1.28577 0,0 1.06923,-1.323 1.35345,-1.39067 0,0 -1.93881,-0.26392 -3.14677,0.19963 0,0 1.09968,-1.15381 3.51897,-0.48047 l 1.42112,-1.04554 c 0,0 -2.54448,-0.48047 -3.65093,-0.14888 0,0 1.30608,-1.01509 4.03328,-0.088 l 1.53278,-0.81207 c 0,0 -2.16214,-0.58199 -3.4716,-0.47709 0,0 1.41097,-0.67673 3.91823,0.26054 l 1.08953,-0.42634 c 0,0 -1.58692,-0.39588 -2.05386,-0.46694 -0.46694,-0.0711 -0.48385,-0.20302 -0.48385,-0.20302 a 5.5457527,5.5457527 0 0 1 2.99111,0.48386 c 0,0 2.28733,-0.74101 2.2535,-0.88651 z"
     fill="#f9a826"
     opacity="0.1"
     id="path388"
     style="stroke-width:0.338362" />
  <path
     d="m 332.70184,129.54411 c 0,0 -12.81715,-1.42451 -11.75808,7.66051 0,0 -0.37897,1.57677 1.01508,2.36854 0,0 0.0575,-0.67673 1.35345,-0.3722 a 5.9720887,5.9720887 0 0 0 1.39067,0.13534 2.9234474,2.9234474 0 0 0 1.7358,-0.61581 v 0 c 0,0 3.68814,-1.30947 5.39349,-7.14621 0,0 1.10644,-1.23502 1.07937,-1.57 l -2.21627,0.81545 c 0,0 0.67672,1.60384 0,2.87608 0,0 0.0711,-2.81179 -0.33836,-2.7678 -0.0846,0 -1.15382,0.48386 -1.15382,0.48386 0,0 1.1369,2.79148 0.0744,4.73706 0,0 0.53462,-3.33963 -0.48385,-4.5442 l -1.57339,0.81207 c 0,0 1.35345,2.893 0.22332,5.13972 0,0 0.43649,-3.5122 -0.55491,-4.9367 l -1.43804,1.01508 c 0,0 1.25871,2.84563 0.31129,4.71 0,0 0.0947,-4.11109 -0.62597,-4.45622 0,0 -1.26209,1.01508 -1.47187,1.43465 0,0 0.85944,2.06401 0.20978,3.09601 0,0 -0.2267,-2.75088 -0.52446,-2.77795 0,0 -1.29931,1.74933 -1.48541,2.98435 a 6.6048256,6.6048256 0 0 1 1.20119,-3.17383 3.6407748,3.6407748 0 0 0 -1.89483,0.86282 c 0,0 0.25377,-1.27224 2.21627,-1.28239 0,0 1.06584,-1.323 1.35345,-1.39405 0,0 -1.93881,-0.26054 -3.14677,0.20302 0,0 1.09968,-1.1572 3.51897,-0.48386 l 1.42112,-1.04554 c 0,0 -2.54448,-0.48047 -3.65093,-0.14888 0,0 1.30608,-1.01509 4.03328,-0.0846 l 1.53278,-0.81545 c 0,0 -2.16214,-0.58199 -3.4716,-0.47709 0,0 1.41097,-0.67673 3.91824,0.26054 l 1.08952,-0.42296 c 0,0 -1.58692,-0.39588 -2.05047,-0.47032 -0.46356,-0.0744 -0.48724,-0.20302 -0.48724,-0.20302 a 5.5660544,5.5660544 0 0 1 2.99112,0.48724 c 0,0 2.29747,-0.74778 2.26364,-0.89327 z"
     fill="#f9a826"
     opacity="0.1"
     id="path390"
     style="stroke-width:0.338362" />
  <path
     d="m 289.19864,28.708858 c 0,0 -10.32681,-7.724804 -14.01834,0.642888 0,0 -1.12674,1.167349 -0.31806,2.564784 0,0 0.38573,-0.544763 1.35345,0.358663 a 5.9247181,5.9247181 0 0 0 1.13013,0.825604 2.9065293,2.9065293 0 0 0 1.817,0.338362 v 0 c 0,0 3.84379,0.741012 8.27295,-3.424224 0,0 1.57677,-0.507543 1.72565,-0.805301 l -2.32455,-0.419569 c 0,0 -0.24362,1.715495 -1.4448,2.483577 0,0 1.48541,-2.388836 1.09967,-2.5614 -0.0778,-0.03722 -1.2384,-0.169181 -1.2384,-0.169181 0,0 -0.43649,2.984352 -2.33132,4.111098 0,0 2.15537,-2.608771 1.88806,-4.165236 l -1.76963,-0.09474 c 0,0 -0.30114,3.177218 -2.41252,4.544201 0,0 2.15875,-2.805021 2.03017,-4.537434 l -1.75271,0.142112 c 0,0 -0.33836,3.089245 -2.11815,4.212606 0,0 2.16552,-3.491895 1.71888,-4.155085 0,0 -1.60045,0.226703 -1.99634,0.490625 0,0 -0.30452,2.212888 -1.38728,2.774568 0,0 1.1978,-2.48696 0.95418,-2.659525 0,0 -2.00649,0.849289 -2.79487,1.817004 a 6.6082092,6.6082092 0 0 1 2.64599,-2.124913 3.6441584,3.6441584 0 0 0 -2.07077,-0.216552 c 0,0 0.86282,-0.967715 2.5614,0.01692 0,0 1.58691,-0.5989 1.8576,-0.524461 0,0 -1.53954,-1.207952 -2.81517,-1.417736 0,0 1.53617,-0.439871 3.27873,1.353448 l 1.7561,-0.179332 c 0,0 -1.94897,-1.69181 -3.07233,-1.976034 0,0 1.63429,-0.206401 3.51897,1.965883 l 1.73579,0.07782 c 0,0 -1.57,-1.597068 -2.75088,-2.172284 0,0 1.55647,0.135345 3.24489,2.209504 l 1.15382,0.186099 c 0,0 -1.16735,-1.143663 -1.53278,-1.441422 -0.36543,-0.297759 -0.3113,-0.395883 -0.3113,-0.395883 a 5.5626708,5.5626708 0 0 1 2.32793,1.93543 c 0,0 2.34485,0.527845 2.38884,0.389116 z"
     fill="#f9a826"
     opacity="0.1"
     id="path392"
     style="stroke-width:0.338362" />
  <path
     d="m 297.17721,84.477678 c 0,0 -3.55956,-12.394199 -11.56521,-7.944739 0,0 -1.60383,0.247004 -1.80347,1.85084 0,0 0.63612,-0.199634 0.85606,1.096293 a 5.9991577,5.9991577 0 0 0 0.40603,1.353448 2.9065293,2.9065293 0 0 0 1.23841,1.380516 v 0 c 0,0 2.61892,2.909913 8.66206,2.260258 0,0 1.56324,0.548147 1.86099,0.399267 l -1.60045,-1.73918 c 0,0 -1.22825,1.22487 -2.64937,1.109827 0,0 2.62569,-1.015086 2.42267,-1.377133 -0.0406,-0.07444 -0.88651,-0.883125 -0.88651,-0.883125 0,0 -2.14521,2.118146 -4.3378,1.871142 0,0 3.29226,-0.778233 4.01636,-2.179051 l -1.35345,-1.143664 c 0,0 -2.15875,2.348232 -4.66601,2.165517 0,0 3.41069,-0.937263 4.35133,-2.395603 l -1.48202,-0.94403 c 0,0 -2.1486,2.250107 -4.23291,2.080926 0,0 3.83364,-1.478641 3.88101,-2.273792 0,0 -1.41435,-0.785 -1.89144,-0.812069 0,0 -1.58015,1.576767 -2.78134,1.37375 0,0 2.45651,-1.26209 2.36854,-1.546314 0,0 -2.11138,-0.531229 -3.3261,-0.236854 a 6.601442,6.601442 0 0 1 3.38362,-0.09812 3.6306239,3.6306239 0 0 0 -1.52263,-1.42112 c 0,0 1.27224,-0.253771 2.03017,1.556465 0,0 1.62752,0.480474 1.7967,0.703793 0,0 -0.49739,-1.891443 -1.38728,-2.828706 0,0 1.48879,0.575215 1.78993,3.065559 l 1.5091,0.916961 c 0,0 -0.52785,-2.537714 -1.25871,-3.43099 0,0 1.42789,0.82222 1.62076,3.691529 l 1.35344,1.106444 c 0,0 -0.2876,-2.219655 -0.88312,-3.38362 0,0 1.16058,1.048922 1.25532,3.721982 l 0.8053,0.845905 c 0,0 -0.23685,-1.617371 -0.33836,-2.077543 -0.10151,-0.460172 0,-0.524461 0,-0.524461 a 5.5457527,5.5457527 0 0 1 0.69364,2.950516 c 0,0 1.54293,1.820388 1.66474,1.739181 z"
     fill="#f9a826"
     opacity="0.1"
     id="path394"
     style="stroke-width:0.338362" />
  <path
     d="m 217.8584,112.40607 c 0,0 -6.91273,-10.88848 -13.33146,-4.37163 0,0 -1.46849,0.67672 -1.21134,2.28394 0,0 0.5583,-0.3722 1.13352,0.81207 a 5.7927569,5.7927569 0 0 0 0.76469,1.17073 2.8896112,2.8896112 0 0 0 1.57339,0.97449 v 0 c 0,0 3.33286,2.05724 8.94967,-0.27069 0,0 1.65459,0.088 1.89821,-0.13873 l -2.03017,-1.21811 c 0,0 -0.83575,1.52263 -2.23319,1.81024 0,0 2.23996,-1.69181 1.93882,-2.0031 -0.0575,-0.0609 -1.09968,-0.59552 -1.09968,-0.59552 0,0 -1.46511,2.63246 -3.63739,3.01481 0,0 2.94036,-1.6749 3.24489,-3.22459 l -1.62075,-0.71395 c 0,0 -1.41097,2.85916 -3.86748,3.38362 0,0 3.01142,-1.85761 3.50204,-3.52235 l -1.69181,-0.48724 c 0,0 -1.42788,2.76442 -3.47497,3.18737 0,0 3.26181,-2.49711 3.08247,-3.27534 0,0 -1.57676,-0.35528 -2.03017,-0.24701 0,0 -1.0726,1.95912 -2.28394,2.10123 0,0 2.0031,-1.90159 1.83731,-2.15198 0,0 -2.17567,0.0846 -3.25843,0.71056 a 6.5845239,6.5845239 0 0 1 3.22797,-1.04892 3.6306239,3.6306239 0 0 0 -1.8576,-0.93726 c 0,0 1.14704,-0.59891 2.36853,0.92372 0,0 1.69181,0 1.92528,0.16918 0,0 -1.01509,-1.69181 -2.1283,-2.32454 0,0 1.5903,0.13534 2.57832,2.43959 l 1.70873,0.4534 c 0,0 -1.22149,-2.28394 -2.17229,-2.93698 0,0 1.60046,0.38573 2.59186,3.08925 l 1.59707,0.67672 c 0,0 -0.90005,-2.04709 -1.80347,-3.00465 0,0 1.40758,0.67672 2.2501,3.21782 l 1.01509,0.58536 c 0,0 -0.67672,-1.48541 -0.91696,-1.89482 -0.24024,-0.40942 -0.1455,-0.50416 -0.1455,-0.50416 a 5.5491363,5.5491363 0 0 1 1.49218,2.63584 c 0,0 2.0234,1.34668 2.11476,1.23163 z"
     fill="#f9a826"
     opacity="0.1"
     id="path396"
     style="stroke-width:0.338362" />
  <path
     d="m 263.29026,56.7726 c 0,0 -6.57437,-11.094889 -13.19611,-4.781055 0,0 -1.4888,0.642888 -1.27901,2.246724 0,0 0.56506,-0.358664 1.10644,0.842521 a 5.8468948,5.8468948 0 0 0 0.72748,1.197801 2.8726931,2.8726931 0 0 0 1.54293,1.015086 v 0 c 0,0 3.26519,2.15875 8.95306,0 0,0 1.6512,0.138729 1.90159,-0.08121 l -1.98618,-1.279008 c 0,0 -0.87974,1.492177 -2.28733,1.739181 0,0 2.29071,-1.634289 2.0031,-1.942198 -0.0609,-0.06429 -1.08275,-0.632737 -1.08275,-0.632737 0,0 -1.54632,2.588469 -3.72199,2.903146 0,0 2.99112,-1.583534 3.33964,-3.119697 l -1.59707,-0.751164 c 0,0 -1.49895,2.818555 -3.97237,3.268577 0,0 3.06894,-1.762866 3.61032,-3.410689 l -1.67151,-0.541379 c 0,0 -1.51586,2.706896 -3.5731,3.079094 0,0 3.33625,-2.395603 3.1806,-3.177219 0,0 -1.56323,-0.406035 -2.03017,-0.311293 0,0 -1.13351,1.925279 -2.34823,2.030172 0,0 2.06062,-1.833922 1.90498,-2.091077 0,0 -2.17905,0.01692 -3.27873,0.609051 a 6.6048256,6.6048256 0 0 1 3.25842,-0.947413 3.6373912,3.6373912 0 0 0 -1.83053,-0.994785 c 0,0 1.16735,-0.565064 2.36853,0.994785 0,0 1.69181,0.05752 1.91851,0.230086 0,0 -0.95756,-1.69181 -2.05385,-2.388836 0,0 1.58353,0.182716 2.50049,2.517413 l 1.69181,0.507543 c 0,0 -1.14705,-2.321163 -2.08093,-3.004654 0,0 1.59031,0.436487 2.49712,3.167068 l 1.57338,0.734246 c 0,0 -0.83576,-2.074159 -1.69181,-3.045258 0,0 1.3839,0.720711 2.15198,3.285495 l 0.9914,0.615818 c 0,0 -0.63612,-1.50571 -0.85944,-1.921896 -0.22332,-0.416185 -0.12858,-0.507543 -0.12858,-0.507543 a 5.5592871,5.5592871 0 0 1 1.41097,2.679827 c 0,0 1.93882,1.377133 2.03694,1.265474 z"
     fill="#f9a826"
     id="path398"
     style="stroke-width:0.338362" />
  <path
     d="m 221.69543,80.102658 c 0,0 0.33836,-12.891591 -8.61808,-11.074588 0,0 -1.60384,-0.247004 -2.28056,1.221487 0,0 0.67672,0 0.48724,1.302694 a 5.9416362,5.9416362 0 0 0 -0.0203,1.400818 2.8929948,2.8929948 0 0 0 0.76131,1.69181 v 0 c 0,0 1.61399,3.566335 7.57254,4.777671 0,0 1.323,0.998168 1.65459,0.94403 l -1.01508,-2.138448 c 0,0 -1.53955,0.791767 -2.86255,0.253772 0,0 2.80841,-0.165798 2.73058,-0.578599 0,-0.08459 -0.58198,-1.113211 -0.58198,-1.113211 0,0 -2.68659,1.370366 -4.69985,0.470323 0,0 3.38362,0.253772 4.49007,-0.859439 l -0.94403,-1.498944 c 0,0 -2.7678,1.583534 -5.1025,0.649655 0,0 3.53588,0.142112 4.8758,-0.964331 l -1.12675,-1.353448 c 0,0 -2.73058,1.49556 -4.66601,0.703793 0,0 4.10095,-0.247005 4.3987,-0.994785 0,0 -1.10982,-1.174116 -1.55646,-1.353447 0,0 -1.9828,1.015085 -3.06556,0.466939 0,0 2.7069,-0.453405 2.72381,-0.754547 0,0 -1.85084,-1.147047 -3.09939,-1.231638 a 6.5879075,6.5879075 0 0 1 3.26519,0.933879 3.6373912,3.6373912 0 0 0 -1.01509,-1.817003 c 0,0 1.28916,0.145495 1.46511,2.097844 0,0 1.41097,0.954181 1.50233,1.218103 0,0 0.0981,-1.952349 -0.46694,-3.116314 0,0 1.24517,0.998168 0.77823,3.461443 l 1.16058,1.333146 c 0,0 0.26393,-2.578318 -0.15903,-3.650925 0,0 1.10983,1.214719 0.42634,4.009589 l 0.93726,1.45834 c 0,0 0.39927,-2.202736 0.1861,-3.498663 0,0 0.785,1.353448 0.0677,3.928383 l 0.51431,1.048922 c 0,0 0.26054,-1.613987 0.29438,-2.08431 0.0338,-0.470323 0.16241,-0.500776 0.16241,-0.500776 a 5.5559035,5.5559035 0 0 1 -0.23347,3.021573 c 0,0 0.9102,2.233189 1.05908,2.189202 z"
     fill="#f9a826"
     id="path400"
     style="stroke-width:0.338362" />
  <ellipse
     cx="236.50214"
     cy="242.3709"
     rx="9.1120882"
     ry="1.539547"
     fill="#f9a826"
     opacity="0.1"
     id="ellipse402"
     style="stroke-width:0.338362" />
  <ellipse
     cx="203.28514"
     cy="265.74496"
     rx="9.1120882"
     ry="1.539547"
     fill="#f9a826"
     opacity="0.1"
     id="ellipse404"
     style="stroke-width:0.338362" />
  <ellipse
     cx="31.512314"
     cy="253.77032"
     rx="9.1120882"
     ry="1.539547"
     fill="#f9a826"
     opacity="0.1"
     id="ellipse406"
     style="stroke-width:0.338362" />
  <ellipse
     cx="272.39896"
     cy="264.20541"
     rx="9.1120882"
     ry="1.539547"
     fill="#f9a826"
     opacity="0.1"
     id="ellipse408"
     style="stroke-width:0.338362" />
  <ellipse
     cx="281.88663"
     cy="244.67175"
     rx="13.605535"
     ry="2.3008614"
     fill="#f9a826"
     id="ellipse410"
     style="stroke-width:0.338362" />
  <path
     d="m 287.52713,240.9058 a 3.9283825,3.9283825 0 0 0 1.29593,-1.95573 c 0.16918,-0.77824 -0.16242,-1.70873 -0.90343,-1.99295 -0.83237,-0.31806 -1.72226,0.25715 -2.39899,0.83913 -0.67672,0.58199 -1.4448,1.24856 -2.32793,1.12675 a 3.5528007,3.5528007 0 0 0 1.0963,-3.31933 1.3906677,1.3906677 0 0 0 -0.30453,-0.67673 c -0.46355,-0.494 -1.29931,-0.28084 -1.85422,0.10828 -1.75948,1.2384 -2.25011,3.62724 -2.26026,5.77922 -0.17595,-0.77485 -0.0271,-1.58353 -0.0305,-2.36853 -0.003,-0.785 -0.22332,-1.69181 -0.89666,-2.10461 a 2.6764432,2.6764432 0 0 0 -1.35345,-0.33837 c -0.79177,-0.0271 -1.67489,0.0508 -2.21289,0.62936 -0.67672,0.71733 -0.49739,1.92528 0.0846,2.70689 0.58199,0.78162 1.47188,1.28578 2.29071,1.83393 a 5.1194166,5.1194166 0 0 1 1.63768,1.55984 1.5903013,1.5903013 0 0 1 0.11842,0.27746 h 4.96039 a 13.683358,13.683358 0 0 0 3.05879,-2.10461 z"
     fill="#f9a826"
     id="path412"
     style="stroke-width:0.338362" />
  <path
     d="m 25.39473,246.61397 c 0,0 5.193856,-0.15903 6.767239,-1.27563 1.573383,-1.11659 7.995494,-2.44636 8.38461,-0.65642 0.389116,1.78993 7.809394,8.89554 1.942198,8.94291 -5.867197,0.0474 -13.632604,-0.91358 -15.195836,-1.86776 -1.563233,-0.95418 -1.898211,-5.1431 -1.898211,-5.1431 z"
     fill="#a8a8a8"
     id="path414"
     style="stroke-width:0.338362" />
  <path
     d="m 42.586902,253.00224 c -5.867197,0.0474 -13.632604,-0.91358 -15.195836,-1.86776 -1.191035,-0.72409 -1.664741,-3.3261 -1.823771,-4.52728 H 25.39473 c 0,0 0.338362,4.1923 1.891443,5.1431 1.553082,0.9508 9.32864,1.91513 15.195836,1.86776 1.69181,0 2.277176,-0.61582 2.246724,-1.5091 -0.236854,0.54477 -0.883125,0.88313 -2.141831,0.89328 z"
     opacity="0.2"
     id="path416"
     style="stroke-width:0.338362" />
  <metadata
     id="metadata501">
    <rdf:RDF>
      <cc:Work
         rdf:about="">
        <dc:title>empty</dc:title>
      </cc:Work>
    </rdf:RDF>
  </metadata>
</svg>
