<?xml version="1.0" encoding="UTF-8" standalone="no"?>
<svg
   xmlns:dc="http://purl.org/dc/elements/1.1/"
   xmlns:cc="http://creativecommons.org/ns#"
   xmlns:rdf="http://www.w3.org/1999/02/22-rdf-syntax-ns#"
   xmlns:svg="http://www.w3.org/2000/svg"
   xmlns="http://www.w3.org/2000/svg"
   xmlns:sodipodi="http://sodipodi.sourceforge.net/DTD/sodipodi-0.dtd"
   xmlns:inkscape="http://www.inkscape.org/namespaces/inkscape"
   width="200mm"
   height="200mm"
   viewBox="0 0 200 200"
   version="1.1"
   id="svg8"
   inkscape:version="1.0.1 (3bc2e813f5, 2020-09-07)"
   sodipodi:docname="TMF_logo.svg">
  <defs
     id="defs2">
    <clipPath
       clipPathUnits="userSpaceOnUse"
       id="clipPath849">
      <path
         d="m 175.849,364.305 c 0,-0.17 0,-0.34 0.002,-0.511 v 0 C 128.187,355.272 93.064,313.826 93.064,264.66 v 0 c 0,-55.544 45.188,-100.732 100.732,-100.732 v 0 c 11.627,0 23.859,0.472 34.396,6.116 v 0 c 9.331,4.998 14.659,11.128 15.838,18.222 v 0 c 1.401,8.439 -3.815,14.327 -4.414,14.97 v 0 l -31.823,31.033 47.533,6.907 21.255,43.072 21.258,-43.072 47.532,-6.907 -34.394,-33.526 2.653,-15.464 14.783,2.536 -1.319,7.692 50.512,49.235 -69.806,10.144 -31.219,63.257 -31.217,-63.257 -69.805,-10.144 53.031,-51.692 c 0.237,-0.336 0.843,-1.324 0.626,-2.411 v 0 c -0.159,-0.797 -1.213,-3.68 -8.106,-7.373 v 0 c -7.482,-4.007 -17.189,-4.339 -27.314,-4.339 v 0 c -47.273,0 -85.732,38.46 -85.732,85.733 v 0 c 0,43.853 32.825,80.488 76.355,85.219 v 0 l 7.203,0.784 -0.534,7.226 c -0.158,2.142 -0.238,4.301 -0.238,6.416 v 0 c 0,47.273 38.458,85.732 85.732,85.732 v 0 c 47.273,0 85.733,-38.459 85.733,-85.732 v 0 c 0,-2.115 -0.08,-4.274 -0.239,-6.416 v 0 l -0.534,-7.226 7.203,-0.784 c 43.53,-4.731 76.354,-41.367 76.354,-85.219 v 0 c 0,-47.273 -38.458,-85.733 -85.732,-85.733 v 0 c -5.146,0 -10.298,0.459 -15.32,1.365 v 0 c -2.87,0.884 -13.298,3.506 -20.484,-2.487 v 0 c -3.37,-2.809 -7.038,-8.397 -5.382,-19.066 v 0 l 0.915,-5.336 -42.515,22.352 -42.514,-22.352 0.966,5.633 -14.785,2.536 -6.101,-35.589 62.434,32.825 62.436,-32.825 -6.022,35.113 c -0.618,4.035 0.172,5.187 0.172,5.187 v 0 c 0.695,0.571 4.031,0.49 6.578,-0.364 v 0 l 0.536,-0.186 0.56,-0.104 c 6.07,-1.129 12.304,-1.701 18.526,-1.701 v 0 c 55.544,0 100.733,45.188 100.733,100.732 v 0 c 0,49.166 -35.124,90.611 -82.787,99.134 v 0 c 0.001,0.171 0.001,0.341 0.001,0.511 v 0 c 0,55.543 -45.188,100.732 -100.732,100.732 v 0 c -55.544,0 -100.733,-45.189 -100.733,-100.732"
         id="path847" />
    </clipPath>
    <linearGradient
       x1="0"
       y1="0"
       x2="1"
       y2="0"
       gradientUnits="userSpaceOnUse"
       gradientTransform="matrix(7.6302295,-340.30823,-340.30823,-7.6302295,272.09061,464.96201)"
       spreadMethod="pad"
       id="linearGradient859">
      <stop
         style="stop-opacity:1;stop-color:#00adef"
         offset="0"
         id="stop855" />
      <stop
         style="stop-opacity:1;stop-color:#1c63b7"
         offset="1"
         id="stop857" />
    </linearGradient>
    <clipPath
       clipPathUnits="userSpaceOnUse"
       id="clipPath869">
      <path
         d="m 203.057,365.404 c 0,-10.052 2.013,-19.631 5.643,-28.37 v 0 c -4.429,0.826 -8.988,1.278 -13.656,1.278 v 0 c -40.888,0 -74.034,-33.146 -74.034,-74.034 v 0 c 0,-40.887 33.146,-74.033 74.034,-74.033 v 0 c 6.761,0 13.311,0.907 19.534,2.604 v 0 l -59.756,58.024 82.999,13 39.001,75.25 38.499,-76.25 83.001,-12.75 -59.693,-57.285 c 6.21,-1.691 12.745,-2.593 19.49,-2.593 v 0 c 40.888,0 74.033,33.146 74.033,74.033 v 0 c 0,40.888 -33.145,74.034 -74.033,74.034 v 0 c -4.283,0 -8.475,-0.385 -12.56,-1.083 v 0 c 3.579,8.687 5.565,18.198 5.565,28.175 v 0 c 0,40.888 -33.146,74.035 -74.033,74.035 v 0 c -40.888,0 -74.034,-33.147 -74.034,-74.035"
         id="path867" />
    </clipPath>
    <linearGradient
       x1="0"
       y1="0"
       x2="1"
       y2="0"
       gradientUnits="userSpaceOnUse"
       gradientTransform="matrix(4.2261462,-327.16379,-327.16379,-4.2261462,273.79092,480.31448)"
       spreadMethod="pad"
       id="linearGradient881">
      <stop
         style="stop-opacity:1;stop-color:#00adef"
         offset="0"
         id="stop875" />
      <stop
         style="stop-opacity:1;stop-color:#00adef"
         offset="0.30242"
         id="stop877" />
      <stop
         style="stop-opacity:1;stop-color:#1c63b7"
         offset="1"
         id="stop879" />
    </linearGradient>
    <clipPath
       clipPathUnits="userSpaceOnUse"
       id="clipPath891">
      <path
         d="M 0,564.548 H 551.163 V 0 H 0 Z"
         id="path889" />
    </clipPath>
  </defs>
  <sodipodi:namedview
     id="base"
     pagecolor="#ffffff"
     bordercolor="#666666"
     borderopacity="1.0"
     inkscape:pageopacity="0.0"
     inkscape:pageshadow="2"
     inkscape:zoom="0.35"
     inkscape:cx="400"
     inkscape:cy="560"
     inkscape:document-units="mm"
     inkscape:current-layer="g841"
     inkscape:document-rotation="0"
     showgrid="false"
     inkscape:window-width="1431"
     inkscape:window-height="1033"
     inkscape:window-x="143"
     inkscape:window-y="111"
     inkscape:window-maximized="0" />
  <metadata
     id="metadata5">
    <rdf:RDF>
      <cc:Work
         rdf:about="">
        <dc:format>image/svg+xml</dc:format>
        <dc:type
           rdf:resource="http://purl.org/dc/dcmitype/StillImage" />
        <dc:title></dc:title>
      </cc:Work>
    </rdf:RDF>
  </metadata>
  <g
     inkscape:label="Layer 1"
     inkscape:groupmode="layer"
     id="layer1">
    <g
       id="g841"
       inkscape:label="My tag fav logo_final"
       transform="matrix(0.35277777,0,0,-0.35277777,-7.613651,181.73001)">
      <g
         id="g977"
         transform="matrix(1.0374499,0,0,1.0374499,-23.357631,-35.608339)">
        <g
           id="g843"
           transform="matrix(1.488857,0,0,1.488857,-94.208823,-182.33659)">
          <g
             id="g845"
             clip-path="url(#clipPath849)">
            <g
               id="g851">
              <g
                 id="g853">
                <path
                   d="m 175.849,364.305 c 0,-0.17 0,-0.34 0.002,-0.511 v 0 C 128.187,355.272 93.064,313.826 93.064,264.66 v 0 c 0,-55.544 45.188,-100.732 100.732,-100.732 v 0 c 11.627,0 23.859,0.472 34.396,6.116 v 0 c 9.331,4.998 14.659,11.128 15.838,18.222 v 0 c 1.401,8.439 -3.815,14.327 -4.414,14.97 v 0 l -31.823,31.033 47.533,6.907 21.255,43.072 21.258,-43.072 47.532,-6.907 -34.394,-33.526 2.653,-15.464 14.783,2.536 -1.319,7.692 50.512,49.235 -69.806,10.144 -31.219,63.257 -31.217,-63.257 -69.805,-10.144 53.031,-51.692 c 0.237,-0.336 0.843,-1.324 0.626,-2.411 v 0 c -0.159,-0.797 -1.213,-3.68 -8.106,-7.373 v 0 c -7.482,-4.007 -17.189,-4.339 -27.314,-4.339 v 0 c -47.273,0 -85.732,38.46 -85.732,85.733 v 0 c 0,43.853 32.825,80.488 76.355,85.219 v 0 l 7.203,0.784 -0.534,7.226 c -0.158,2.142 -0.238,4.301 -0.238,6.416 v 0 c 0,47.273 38.458,85.732 85.732,85.732 v 0 c 47.273,0 85.733,-38.459 85.733,-85.732 v 0 c 0,-2.115 -0.08,-4.274 -0.239,-6.416 v 0 l -0.534,-7.226 7.203,-0.784 c 43.53,-4.731 76.354,-41.367 76.354,-85.219 v 0 c 0,-47.273 -38.458,-85.733 -85.732,-85.733 v 0 c -5.146,0 -10.298,0.459 -15.32,1.365 v 0 c -2.87,0.884 -13.298,3.506 -20.484,-2.487 v 0 c -3.37,-2.809 -7.038,-8.397 -5.382,-19.066 v 0 l 0.915,-5.336 -42.515,22.352 -42.514,-22.352 0.966,5.633 -14.785,2.536 -6.101,-35.589 62.434,32.825 62.436,-32.825 -6.022,35.113 c -0.618,4.035 0.172,5.187 0.172,5.187 v 0 c 0.695,0.571 4.031,0.49 6.578,-0.364 v 0 l 0.536,-0.186 0.56,-0.104 c 6.07,-1.129 12.304,-1.701 18.526,-1.701 v 0 c 55.544,0 100.733,45.188 100.733,100.732 v 0 c 0,49.166 -35.124,90.611 -82.787,99.134 v 0 c 0.001,0.171 0.001,0.341 0.001,0.511 v 0 c 0,55.543 -45.188,100.732 -100.732,100.732 v 0 c -55.544,0 -100.733,-45.189 -100.733,-100.732"
                   style="fill:url(#linearGradient859);stroke:none"
                   id="path861" />
              </g>
            </g>
          </g>
        </g>
        <g
           id="g863"
           transform="matrix(1.488857,0,0,1.488857,-94.208823,-182.33659)">
          <g
             id="g865"
             clip-path="url(#clipPath869)">
            <g
               id="g871">
              <g
                 id="g873">
                <path
                   d="m 203.057,365.404 c 0,-10.052 2.013,-19.631 5.643,-28.37 v 0 c -4.429,0.826 -8.988,1.278 -13.656,1.278 v 0 c -40.888,0 -74.034,-33.146 -74.034,-74.034 v 0 c 0,-40.887 33.146,-74.033 74.034,-74.033 v 0 c 6.761,0 13.311,0.907 19.534,2.604 v 0 l -59.756,58.024 82.999,13 39.001,75.25 38.499,-76.25 83.001,-12.75 -59.693,-57.285 c 6.21,-1.691 12.745,-2.593 19.49,-2.593 v 0 c 40.888,0 74.033,33.146 74.033,74.033 v 0 c 0,40.888 -33.145,74.034 -74.033,74.034 v 0 c -4.283,0 -8.475,-0.385 -12.56,-1.083 v 0 c 3.579,8.687 5.565,18.198 5.565,28.175 v 0 c 0,40.888 -33.146,74.035 -74.033,74.035 v 0 c -40.888,0 -74.034,-33.147 -74.034,-74.035"
                   style="fill:url(#linearGradient881);stroke:none"
                   id="path883" />
              </g>
            </g>
          </g>
        </g>
      </g>
    </g>
  </g>
</svg>
